<?xml version="1.0" encoding="UTF-8"?>
<!DOCTYPE svg PUBLIC "-//W3C//DTD SVG 1.1//EN" "http://www.w3.org/Graphics/SVG/1.1/DTD/svg11.dtd">
<!-- Creator: CorelDRAW -->
<svg xmlns="http://www.w3.org/2000/svg" xml:space="preserve" width="21cm" height="21cm" version="1.1" style="shape-rendering:geometricPrecision; text-rendering:geometricPrecision; image-rendering:optimizeQuality; fill-rule:evenodd; clip-rule:evenodd"
viewBox="0 0 21000 21000"
 xmlns:xlink="http://www.w3.org/1999/xlink"
 xmlns:xodm="http://www.corel.com/coreldraw/odm/2003">
 <defs>
  <style type="text/css">
   <![CDATA[
    .str0 {stroke:black;stroke-width:20;stroke-miterlimit:22.9256}
    .fil31 {fill:black}
    .fil11 {fill:#166A4A}
    .fil24 {fill:#383E64}
    .fil18 {fill:#386B57}
    .fil7 {fill:#392827}
    .fil1 {fill:#451716}
    .fil4 {fill:#493A4C}
    .fil13 {fill:#4E6B4F}
    .fil3 {fill:#506934}
    .fil10 {fill:#567777}
    .fil15 {fill:#5E7B8F}
    .fil5 {fill:#6C350A}
    .fil19 {fill:#6E5030}
    .fil17 {fill:#71714E}
    .fil14 {fill:#8A5918}
    .fil21 {fill:#8B5B65}
    .fil27 {fill:#93AF4D}
    .fil2 {fill:#994519}
    .fil12 {fill:#9A6925}
    .fil8 {fill:#A4373A}
    .fil16 {fill:#A85737}
    .fil6 {fill:#AC4A23}
    .fil30 {fill:#B87549}
    .fil29 {fill:#C79738}
    .fil9 {fill:#C85829}
    .fil0 {fill:#CC7A34}
    .fil28 {fill:#D8AA46}
    .fil25 {fill:#DCC55E}
    .fil22 {fill:#E48D2B}
    .fil23 {fill:#F4C8AB}
    .fil26 {fill:#F4CA6D}
    .fil20 {fill:#FEBD93}
   ]]>
  </style>
    <clipPath id="id0">
     <rect x="-40.04" y="-3.64" width="20970.87" height="20970.87"/>
    </clipPath>
    <mask id="id1">
  <linearGradient id="id2" gradientUnits="userSpaceOnUse" x1="6335.6" y1="2272.2" x2="6280.39" y2="21938.23">
   <stop offset="0" style="stop-opacity:1; stop-color:white"/>
   <stop offset="0.470588" style="stop-opacity:0.501961; stop-color:white"/>
   <stop offset="1" style="stop-opacity:0; stop-color:white"/>
  </linearGradient>
     <rect style="fill:url(#id2)" x="-50.04" y="-13.64" width="20990.87" height="20990.87"/>
    </mask>
 </defs>
 <g id="Layer_x0020_1">
  <metadata id="CorelCorpID_0Corel-Layer"/>
  <g id="_1746626889216">
   <g style="clip-path:url(#id0)">
    <image id="perpus.jpg" x="-40.04" y="-3.64" width="20970.87" height="20970.87" xlink:href="background_pbl_Images\background_pbl_ImgID1.png"/>
   </g>
   <g>
    <path class="fil0" d="M-40.04 3154.31l0 335.98 5262.36 18.16 -0.02 3107.46 -2884.34 17.05 -2378 18.86 0 335.44c879.86,-0.65 1760.15,-3.34 2639.95,-2.18 401.09,0.53 2391.88,-29.22 2623.03,19.85l-2.24 3105.4 -724.49 4.95c-61.03,-10.94 -34.94,-43.36 -135.44,-89.78 -13.23,-6.11 -141.8,-40.88 -143.14,-41.21 -116.37,-28.56 -195.95,-52.77 -298.5,-73.1l-36.85 -336.16c-199.41,-9.06 -453.43,-121.18 -579.08,-71.05 15.92,184.48 100.32,160.16 478.35,234.47l-17.07 148.43c-44.7,29.01 -235.01,77.55 -289.09,92.1 -616.89,165.92 376.64,131.38 -950.28,142.01l-2565.15 7.14 0 351.86 1698.83 2.31c34.34,48.72 11.82,-7.74 31.86,81.14l-12.39 3058.4 -1718.3 -0.59 0 356.79 8701.52 5.6c84.21,36.75 70.47,-27.36 64.71,326.98 -2.22,136.7 0.25,273.24 -1.29,409.97 -2.94,260.36 -3.29,520.17 -3.77,780.83 -0.95,529.45 5.97,1059.79 -3.53,1588.28l-131.14 40.97 -8626.5 6.58 0 333.97 8732.66 1.66c55.08,80.07 45.68,236.14 45.08,333.09l0.5 1227.78c2.39,261.39 34.18,1416.38 -30.98,1567.07l-809.03 16.24 -55.56 -244.56 -446.21 1.34 -30.17 144.38c-7.95,45.29 -20.55,83.25 -22.91,88.81 -42.1,-115.13 9.72,14.18 -15.94,-93.21 -3.16,-13.24 -14.35,-57.08 -17.7,-68.88 -3.5,-12.28 -8.85,-25.61 -11.96,-35.84 -3.18,-10.48 -6.67,-25.17 -12.85,-36.49l-446.18 -0.14 -22.23 155.73c-13.83,31.38 131.79,128.68 -125.7,90.81 -55.95,-8.23 -127.06,51.86 -100.48,-282.74 40.74,-512.68 164.14,-1489.81 146.73,-1920.35 -8.58,-64.53 5.51,-151.73 -10.96,-217.04 -54.49,-215.93 -71.61,185.15 -102.01,-226.36l173.42 3.93 0.32 -167.62c-182.28,-16.83 -397.77,-69.26 -570.56,-19.79l-207.62 2731.87c98.59,71.81 61.22,38.87 189.44,66.69l-871.96 13.38 28.65 -310.14c-203.99,-50.69 -425.59,-97.06 -534.89,118.11 -38.54,-201.53 70.29,-143.7 -219.35,-154.28 -91.78,-3.35 -194.92,16.43 -278.6,47.95 71.07,225.62 71.45,-89.38 92.87,153.96 13.72,155.85 -56.18,136.34 -152.66,175.8 -8.93,-10.86 -18.72,-41.39 -21.96,-36 -66.85,111.36 2.71,-642.97 -36.47,-730.15l-461.94 -22.59c15.83,52.78 102.54,627.86 -37.37,777.52l-27.19 -57.5c-8.91,-36.72 -12.96,-50.15 -14.47,-88.58 -4.08,-103.64 15.91,-113.02 5.99,-251.31l-419.5 0c-25.97,169.9 -9.41,55.42 -6.09,182.83 1.67,63.76 11.85,151.71 14.88,219.67 -181.18,-69.61 -59.05,-6.23 -114.5,-106.72l36.2 -252.33 -479.06 -28.15c-55.82,90.25 -23.25,-10.4 -35.54,123.84 -24.03,262.44 177.54,269.49 -187.74,269.49 -51.85,-73.41 -36.12,-22.31 -51.7,-146.3 -8.02,-63.8 3.25,-69.72 7.72,-127.18l127.85 -1547.7c16.91,-177.82 4.07,-475.17 32.18,-638.76 130.16,50.03 59.12,48.31 254.3,56.28 145.09,5.95 201.94,1.9 309.69,-44.97 -0.35,-2 -35.7,-111.08 -47.75,-178.42l-409.2 -6.11c-69.75,-75.86 -36.08,-53.45 -74.36,-183.33l-548.79 -53.85 -216.74 2758.78 -930.63 80.17c90.87,-196.15 242.67,-321.65 -31.56,-479.82 85.94,-70.86 97.99,-55.11 265.26,-68.01 -121.87,-139.32 -119.41,-133.7 -108.92,-380.8 -56.83,159.67 -15.44,137.05 -21.19,309.87l-1084.56 -2.67 0 185.17 865.14 -2.75c54.73,177.86 66.76,165.28 -0.61,350.86l-864.53 -1.46 0 455.83 20970.87 0 0 -453.98 -1189.84 0.8c-27.55,-39.11 -23.46,21.32 -31.23,-97.78 -90.75,116.07 9.3,59.07 -117.5,96.51l-23.18 -3023.77 1361.75 -16.92 0 -370.22 -8328.77 -0.85 54.87 -229.88 -501.09 -15.45c-7.26,12.05 -12.31,17.01 -14.51,35.07 -2.15,17.71 -10.55,23.74 -13.34,32.14l-46.57 177.7 -189.79 0.48 224.69 -2783.4c-192.55,-31.66 -402.76,-78.25 -576.37,-33.12l-214.4 2741.33 240.18 65.97 -318.98 21.3 -548.78 -2.95 -1612.58 -15.26 -0.58 -3105.25 11846.02 -12.68 0 -359.15c-817.74,-7.76 -1636.65,-2.2 -2454.04,-2.17 -457.26,0.02 -2076.09,56.74 -2399.94,-23.21l-0.19 -3110.74 4854.17 -1.43 0 -349.62 -1637.38 -10.35 -302.47 -2.24 -94.64 -1.22 -840.47 4.05c-480.63,-7.44 -1587.88,58.52 -1995.24,-24.21l9.88 -3096.53 4860.32 -13.96 0 -350.85c-821.24,33.22 -1638.46,-48.28 -2454.04,1.95 -754.09,46.44 -1439.73,-16.73 -2159.29,-12.59 -50.38,0.3 -95.17,1.13 -142.76,-1.56l-103.67 -14.24 -1.33 -3114.49 4861.09 -3.3 0 -349.9c-514.3,-54.46 -1318.41,-10.37 -1859.12,-8.85 -613.43,1.73 -1238.18,-12.27 -1859.12,0.96 -1217.55,25.94 -2484.16,5.75 -3718.24,8.13 -710.48,1.37 -7242.56,24.73 -7363,-24.7l161.86 -26.94c147.37,-4.48 222.87,-14.65 331.99,-81.73 -11.74,-204.73 -70.86,-489.85 -106.34,-721.89 -59.22,-387.31 -278.3,-1825.37 -351.21,-2009.79l-555.97 92.84 446.3 2758.57 -465.06 -22.08 -4.86 -3109.42 -333.2 0c18.84,384.8 35.99,2955.12 -32.63,3141.94l-5262.27 16.01z"/>
    <path class="fil1" d="M9089.1 18885.01l-0.9 1695.9 10115.59 8.8 1.05 -3102.55c-1111.48,-63.85 -3519.39,-15.38 -4706.56,-15.51l-5414.6 5.47 5.42 1407.89z"/>
    <path class="fil1" d="M10697.97 17110.21l-29.26 -124.98c-209.59,37.61 -235.72,95.61 -491.82,91.01l-364.39 -1312.99c-20.22,-64.58 -41.69,-142.22 -57.86,-200.59l-90.07 -207.89 -10.81 1536.44 -546.69 26.07 15.49 -1638.77 96 0c-168.12,-6.27 -89.96,-2.68 -87.29,-148.92 9.38,-4.95 23.9,-20.95 29.52,-11.89 5.68,9.17 22.21,-8.98 30.27,-10.9 5.95,-1.42 130.41,-68.83 498.16,39.38 137.77,40.55 331.51,-64.67 485.62,-82.98 156.95,466.12 282.94,1223.52 467.62,1658.68 72.38,-76.8 46.03,-1997.05 48.06,-2091.37l580.14 11.94 29.89 598.72c0.25,402.36 4.94,1551.92 -53.8,1871.99l318.98 -21.3 -240.18 -65.97 214.4 -2741.33c173.61,-45.13 383.82,1.46 576.37,33.12l-224.69 2783.4 189.79 -0.48 46.57 -177.7c2.79,-8.4 11.19,-14.43 13.34,-32.14 2.2,-18.06 7.25,-23.02 14.51,-35.07l501.09 15.45 -54.87 229.88 8328.77 0.85 0 -55.01 -696.55 7.29c-82.7,-880.58 -7.59,-1790.05 -5.09,-2663.41l701.64 1.68 0 -415.4 -11846.02 12.68 0.58 3105.25 1612.58 15.26z"/>
    <path class="fil1" d="M7471.73 6630.95l643.64 -12.25c-16.06,-153.04 -60.42,-225.08 -58.83,-382.74 172.09,-27.73 208.54,-63.62 381.01,-42.49 75.89,255.63 108.77,299.86 -2.43,378.53l313.65 48.05 -101.44 -106.81c-113.62,-148.61 -57.16,-325.23 77.33,-392.11 186.68,-92.81 2017.5,-17.27 2325.28,-25.22l-126.6 142.91 2.96 221.74c10.57,11.35 125.47,116.06 139.89,123.86l871.66 26.99 1.28 -2909.5c65.16,1.64 153.04,-4.37 194.22,9.23l96.42 78.29c98.33,112.95 409.49,56.28 558.31,59.3 63.82,61.42 50.5,114.2 111.35,188.49 160.02,4.17 320.86,-0.73 481.34,4.3 313.24,9.81 420.33,-46.46 501.63,71.5 3.47,5.04 28.45,54.04 35.27,65.05 1.14,-108.05 31.7,-106.32 60.05,-140.03 131.38,0.26 265.03,-24.66 342.78,52.82 150.99,150.44 29.67,-4.16 45.15,109l56.19 146.84c-47.01,199.84 -27.67,1205.59 -22.21,1524.48 10,583.77 60.32,368.68 -87.26,438.72 -0.05,-12.38 13.62,-97.41 59.11,23.31 49.47,131.24 0.36,31.16 -6.61,49.21l44.48 55.89c-7.89,12.23 -19.58,14.96 -24.89,35.85 -4.91,19.32 -16.5,25.85 -23.04,33.15l-80.07 70.33 142.56 33.95 60 -172.28c3.41,-8.44 7.78,-22.53 14.37,-32.3 338.49,-0.65 287.18,-4.94 360.32,182.18 2.81,7.2 5.16,21.35 11.5,29.98l836.82 -5.01 0.1 -3123.21 -10104.58 -16.98 -9.13 224.77 1821.51 12.67c150,37.86 -65.51,73.28 224.12,31.35 85.17,-12.35 159.07,-33.25 240.87,-41.05 166.56,629.43 300.16,1442.24 467.43,2073.93 10.91,41.19 43.76,154.5 50.08,185.78 49.12,242.77 -32,262.1 -397.22,281.4 8.42,-336.53 -398.09,-1823.19 -481.41,-2361.88 -58.87,87.06 -50.73,259.33 -49.59,353.99 1.35,111.74 4.57,222.5 4.78,334.87 0.41,223.01 -0.01,446.03 0.22,669.28 0.5,477.76 12.01,947.8 -2.37,1391.87z"/>
    <path class="fil2" d="M-40.04 17137.25l8626.5 -6.58 -11.71 -176.25c-6.93,-2.83 -42.4,-30.74 -50.74,-39.88 -88.57,134.02 119.6,64.98 -195.78,96.19l-1493.98 -9.79c-41.6,-202.64 -26.94,-227.32 0.38,-424.24l1343.33 -4.64c427.9,-12.28 338.55,-15 345.65,119.01 48.34,-54.18 -34.82,60.79 61.5,-65.75l46.9 -82.79c-123.79,-38.66 -246.63,-8.78 -380.57,-74.37l2.14 -185.72 -26.34 111.35c-190.91,53.61 -95.93,69.74 -383.38,69.69l-856.07 -11.86c-211.63,-14.38 -241.89,27.21 -446.36,22.94 35.29,-45.57 326.22,-269.75 36.99,-489.58 -100.72,84.27 -35.65,-88.63 -98.8,151.34l91.35 517.75c-9.32,8.31 -23.61,17.06 -29.53,23.04l-26.42 133.95c27,88.56 8.36,109.96 -10.77,215.71l-595.29 -0.69c-47.06,-194.08 -30.66,-67.88 -18.26,-258.32 33.38,-513 -10.19,-1924.19 18.44,-2065.18 227.56,-40.43 381.68,-33.06 588.5,31.07l29.81 84.63c-4.82,10.11 -10.48,19.47 -15.31,30.88 -72.42,171.01 -20.88,897.01 -7.9,1061.26l72.21 25.9c174.56,45.23 226.55,17.03 411.04,11.53 159.28,-4.76 323.02,-2.54 483.31,-0.28 387.08,5.49 619.26,-71.53 783.76,185.76l-2.74 -185.72c347.51,-349.24 136.68,-412.08 18.71,-598.65l209.87 -4.05 -114.82 -113.98c-133.59,41.15 -1123.58,64.62 -1300.92,-1.58l5.74 -240.23c269.37,-98.24 878.43,-26.68 1218.42,-32.67l90.3 193.58c31.99,-117.44 50.38,-148.15 60.82,-263.39 -303.37,-47.07 -1264.65,-62.52 -1484.56,20.05 -28.45,81.93 -65.59,178.02 -31.35,299.74 45.23,160.9 27.35,67.4 69.97,104.78 7.42,6.5 21.56,12.34 28.12,17.14 6.89,5.05 25.91,23.09 31.21,14.93 5.47,-8.43 22.2,8.72 33.06,13.63 -121.22,-9.48 -301.31,-16.09 -382.67,32.97 34.48,91.31 10.24,58.28 93.11,111.35 81.27,-126.07 -104.08,-60.7 188.14,-85.62l1085.89 0.45c174.34,4.35 208.1,10.63 202.03,236.68 -6.2,230.96 -69.66,197.95 -278.45,195.44 -137.3,-1.64 -274.22,-4.07 -412.09,-4.25 -135.99,-0.17 -273.42,-1.59 -409.28,0.76 -24.08,0.43 -217,3.72 -224.25,2.42 -191.07,-34.34 -87.53,70.73 -153.84,-85.23 -104.79,81.62 -103.03,55.41 -142.38,111.18 -57.5,-47.74 -119.37,-30.12 -116.92,-297.1 0.82,-87.23 7.59,-169.52 7.18,-260.46 -0.77,-171.46 -17.97,-355.42 26.01,-516.65l-11.97 -314.85 -1763.34 -17.05c-316.59,3.37 -331.62,-46.1 -454.57,72.97l-38.53 54.03c-19.42,-188.41 -100.76,-129.77 -323.57,-121.69l-2604.51 -1.1c-196.53,-1.7 -269.94,14.65 -356.85,-59.81l25.28 1982.44c1.53,232.08 -38.69,412.73 -37.44,637.51l-820.5 -5.22c-77.99,-338.44 -230.27,-2015.4 -194.55,-2369.08l344.21 12.93c-62.91,-99.88 16.66,-108.18 -38.34,-285.71l-334.23 23.89 0 2729.14z"/>
    <path class="fil3" d="M10179.47 611.69l649.97 53.95c-118.73,16.27 -222.36,13.3 -346.29,10.81 -369.46,-7.44 -296.19,21.54 -356.32,72.55l728.01 12.11 -6.21 320.77 -726.51 5.75 16.09 1351.84 708.34 7.32 0.96 323.29c-147.42,0.96 -602.6,-9.94 -716.92,42.26 -24.21,68.8 -13.13,134.14 9.49,233.16 24.83,46.24 0.64,85.68 228.78,100.17l857.36 -2.69c633.38,11.04 3065.22,18.75 3425.86,-25.16 3.25,-176.29 -36.58,-342.32 -32.54,-518.76 3.51,-153.04 64.3,-398.81 68.38,-482.16 2.66,-54.2 -7.97,-419.68 -16.58,-507.05l-24.86 -386.37c-3.91,-14.49 -6.4,-21.67 -11.53,-35.31l-62.12 -99.72 -668.96 4.6 11.35 -345.94 675.67 22.08c29.41,-169.99 10.28,-168.03 -5.93,-356.47l-1388.07 -6.82 -74.36 182.35c-85.7,-168.25 32.32,-182.07 -256.24,-188.43 -169.39,-3.75 -272.64,-9.34 -429.01,34.6 -6.76,1.9 -16.67,7.29 -22.77,8.83l-75.62 2.99c-335.31,-70.4 -1066.88,-58.66 -1391.46,-23.16l-762.69 -12.84 -5.27 201.45z"/>
    <path class="fil4" d="M2044.99 11303.74l1.99 2298.96 3825.17 12.52 30.42 -241.54c-124.32,-18.41 -353.19,-6.39 -481.68,-28.84 11.17,-209.33 -19.07,-93.75 150.4,-125.13 12.27,-2.26 21.74,-2.09 34.3,-4.64l262.68 -83.92 -3.29 -219.2c-27.96,-222.34 -26.56,-549.09 -20.8,-709.87 6.77,-188.6 -41.18,-614.33 -30.33,-679.37l-27.51 -70.57c-3.45,-8.4 -18.47,-49.18 -23.19,-59.03 -129.02,-269.53 150.04,148.44 -69.1,-95.36 -4.92,-5.47 -13.07,-13.33 -18.22,-18.96 -5.43,-5.91 -13,-14.45 -18.59,-20.48 -5.72,-6.14 -12.6,-15.2 -18.45,-21.32 -81.81,-85.56 49.02,-30.87 -100.59,-85.69 146.56,-70.05 90.27,5.04 63.29,-212.45 -8.85,-71.36 -25.84,-183.36 -46.2,-212.68l-3412.64 -8.45c-67.43,220.3 -51.14,627.25 -27.26,886.29l-70.4 -300.27z"/>
    <path class="fil1" d="M2044.99 11303.74l70.4 300.27c-23.88,-259.04 -40.17,-665.99 27.26,-886.29l3412.64 8.45c20.36,29.32 37.35,141.32 46.2,212.68 26.98,217.49 83.27,142.4 -63.29,212.45 149.61,54.82 18.78,0.13 100.59,85.69 5.85,6.12 12.73,15.18 18.45,21.32 5.59,6.03 13.16,14.57 18.59,20.48 5.15,5.63 13.3,13.49 18.22,18.96 219.14,243.8 -59.92,-174.17 69.1,95.36 4.72,9.85 19.74,50.63 23.19,59.03l27.51 70.57 68.15 -626.38 668.16 15.45 28.26 119.66c5.88,-6.61 13.23,-16.84 16.05,-21.14l58.34 -112.02 632.08 5.76 57.38 86.08c2.48,-6.5 11.27,17.14 16.81,25.77 31.28,-185.36 217.2,-134.02 669.46,-107.52l65.67 94.31 45.89 -104.95 647.81 6.07 38.27 179.23 57.57 -183.18 644.31 15.58c31.46,221.42 66.81,132.22 13.53,341.3l11.41 321.7c16.49,470.56 23.67,930.9 -0.85,1341.94l14.72 336.8 23.14 161.83 -120.89 0.2c110.3,68.68 122.03,-68.85 84.08,139.69 20.5,-246.28 -9.16,-43.76 74.66,-127.91l225.41 -1983.26c31.34,-131.19 8.71,-47.81 35.49,-109.45l344.72 45.16 -225.41 2187.42c22.07,16.82 -29.69,49.48 107.53,40.87 256.55,-16.09 63.65,32.58 154.2,-80.79l11.95 -2156.94c119.4,-118.61 646.54,-46.04 844.18,-44.55l-5.11 -531.17c264.41,-13.59 1968.67,-25.47 2085.47,18.17 33.14,336.5 44.75,2535.51 -12.44,2794.47l532.8 -1.76c-7.38,-2.92 -19.28,-21.51 -23.11,-14.37l-71.19 -47.98c-28.33,-16.53 -94.71,-47.43 -123.71,-62.12 -89.03,-45.03 -160.28,-86.26 -240.97,-139.84 9.5,-126.16 1098.73,-2336.93 1230.61,-2494.15 181.01,58.56 326.15,177.86 505.42,195.8 -58.58,324.37 -1048.04,2074.55 -1227.89,2563.36l1186.12 -0.79 -327.24 -98.74 438.34 -2740.26 558.89 68.86 -431.67 2767.16 500.57 3.5 8.8 -3131.14 -13659.82 3.82 -4.81 821.48z"/>
    <path class="fil5" d="M5813.85 11522.71c-10.85,65.04 37.1,490.77 30.33,679.37 -5.76,160.78 -7.16,487.53 20.8,709.87 840.05,14.53 687.28,-85.6 700.36,345.14l-668.88 16.23c-62.66,-97.13 -18.08,-11.64 -28.19,-142.17l-262.68 83.92c-12.56,2.55 -22.03,2.38 -34.3,4.64 -169.47,31.38 -139.23,-84.2 -150.4,125.13 128.49,22.45 357.36,10.43 481.68,28.84l-30.42 241.54c610.03,33.74 1279.42,3.82 1896.11,5.43l1746.67 -1.19c128.55,-35.15 46.69,28.21 114.79,-68.63l-1.86 -119.85c-83.82,84.15 -54.16,-118.37 -74.66,127.91 37.95,-208.54 26.22,-71.01 -84.08,-139.69l120.89 -0.2 -23.14 -161.83 -705.56 15.68 -7.78 -351.67 698.62 -0.81c24.52,-411.04 17.34,-871.38 0.85,-1341.94l-697.18 -1.72 9.4 -348.89 676.37 28.91c53.28,-209.08 17.93,-119.88 -13.53,-341.3l-644.31 -15.58 -57.57 183.18 -38.27 -179.23 -647.81 -6.07 -45.89 104.95 -65.67 -94.31c-452.26,-26.5 -638.18,-77.84 -669.46,107.52 -5.54,-8.63 -14.33,-32.27 -16.81,-25.77l-57.38 -86.08 -632.08 -5.76 -58.34 112.02c-2.82,4.3 -10.17,14.53 -16.05,21.14l-28.26 -119.66 -668.16 -15.45 -68.15 626.38z"/>
    <path class="fil1" d="M-40.04 3692.91l2465.81 -8.71c22.37,311.13 16.68,496.75 108.77,759.31 11.83,33.71 25.62,48.62 39.12,80.31 6.75,15.84 14.09,5.92 32.91,86.16 35.26,150.31 39.55,384.55 -51.8,505.31 -206.62,273.15 27.88,404.33 -75.15,820.81 -7.25,29.32 -9.14,-15.21 -17.6,87.44l6.52 516.92 -130.58 92.5 2884.34 -17.05 0.02 -3107.46 -5262.36 -18.16 0 202.62z"/>
    <path class="fil1" d="M-40.04 7257.86c346.64,-0.12 2389.26,-36.2 2522.65,29.37 55.5,49.69 51.56,243.04 49.38,330.7 -3.19,128.71 -5.06,242.65 -2.3,372.64 4.85,228.5 -13.56,523.23 -16.29,707.52 -6.08,411.11 22.75,959.69 11.71,1422.9 1326.92,-10.63 333.39,23.91 950.28,-142.01 54.08,-14.55 244.39,-63.09 289.09,-92.1l17.07 -148.43c-378.03,-74.31 -462.43,-49.99 -478.35,-234.47 125.65,-50.13 379.67,61.99 579.08,71.05l36.85 336.16c102.55,20.33 182.13,44.54 298.5,73.1 1.34,0.33 129.91,35.1 143.14,41.21 100.5,46.42 74.41,78.84 135.44,89.78l724.49 -4.95 2.24 -3105.4c-231.15,-49.07 -2221.94,-19.32 -2623.03,-19.85 -879.8,-1.16 -1760.09,1.53 -2639.95,2.18l0 270.6z"/>
    <path class="fil6" d="M14977.98 524.48c32.94,-164.56 -6.04,-48.59 40.85,-102.78l1739.18 -3.26 -10.04 375.17 -1729.14 3.8c-50.22,-58.44 -40.42,93.86 -41.75,-101.23 -102.87,167.97 -144.08,158 -391.62,147.16l-12.63 245.11 62.12 99.72c5.13,13.64 7.62,20.82 11.53,35.31l24.86 386.37c8.61,87.37 19.24,452.85 16.58,507.05 -4.08,83.35 -64.87,329.12 -68.38,482.16 -4.04,176.44 35.79,342.47 32.54,518.76 -360.64,43.91 -2792.48,36.2 -3425.86,25.16l-857.36 2.69c-228.14,-14.49 -203.95,-53.93 -228.78,-100.17l-534.48 48.16c8.34,-138.8 27.13,-264.85 27.74,-386.09 2.8,-554.51 -52.96,-1262.94 -10.17,-1806.03 13.92,-176.59 -20.5,-497.42 28.86,-597.09l-136.01 9.78 27.48 2754.03 -375.77 28.76c30.92,-468.18 3.6,-935.58 5.14,-1427.45 0.77,-242.87 -12.82,-1244.32 45.32,-1360.05l-148.36 3.7c46.09,262.25 20.68,1003.64 20.07,1319.16 -0.39,207.06 57.59,1021 -68.49,1187.24l72.7 257.88 -405.94 -4.23 -7.37 -2739.91 -80.7 0 -2.02 2736.83 -512.45 16.65 17.08 -2771.94c-158.31,107.03 -4.67,2087.36 -71.94,2394.57 -23.21,105.96 -2.31,57.71 -54.84,117.65l-290.31 166.37c-184.26,106.02 -100.01,83.58 -211.26,61.16 -75.71,70.39 44.36,32.89 -150.65,59.22l-447.83 -4.16c-170.76,-0.89 -429.96,11.94 -582.67,-19.85l-161.86 26.94c120.44,49.43 6652.52,26.07 7363,24.7 1234.08,-2.38 2500.69,17.81 3718.24,-8.13 620.94,-13.23 1245.69,0.77 1859.12,-0.96 540.71,-1.52 1344.82,-45.61 1859.12,8.85l0 -36.87 -21.69 -16.52 -493.45 36.01c-38.32,-159.01 -32.43,-2837.69 4.41,-2967.57l-104.41 2.09 0.41 2953.36 -446.73 -4.76 17.59 -2940.32 -107.19 1.52 8.39 200.17 10.39 594.55 -14.14 2144.93 -454.17 13.06 17.14 -2963.53 -106.06 -0.73c34.7,116.03 40.53,2809.34 4.9,2958.33 -152.54,5.18 -319.76,25.33 -457.81,-29.72l15.65 -2919.57 -97.67 -1.31 13.41 795.44 -2.74 1379.22 0.67 783.61 -483.41 13.07 15.58 -723.08 8.37 -1529.77c-10.36,-182.12 -47.32,-581.13 6.26,-723.54l-99.44 -3.74 3.38 2959.51 -357.36 -2.63c-75.18,-12.63 -40.69,-2.61 -101.1,-29.99l19.93 -2915.81 -100.69 -1.95 -0.74 2948.73 -438.76 7.42c-46.14,-216.57 -43.9,-2820.96 6.3,-2958.98 -101.3,140.49 -36.04,503.89 -40.16,688.39l-290.48 -12.25c315.18,-796.06 -617.51,-405.9 -2007.52,-498.75 97.79,202.69 10.01,-35.07 120.09,185.2z"/>
    <path class="fil1" d="M6293.21 3089.86c152.71,31.79 411.91,18.96 582.67,19.85l447.83 4.16c195.01,-26.33 74.94,11.17 150.65,-59.22 -77.28,-116.48 -224.4,-414.54 -299.86,-571.87 -108.02,-225.21 -203.32,-406.77 -304.92,-623.44l-611.45 -1230.88c7.07,-7.7 18.95,-28.49 23.03,-21.27 4.02,7.1 17.45,-16.23 23.08,-20.46 151.38,-113.78 282.64,-149.22 460.1,-213.93 61.18,81.18 100.24,186.3 149.81,287.35l919.89 1834.26c80.97,158.75 128.29,189.1 141.89,332.71 52.53,-59.94 31.63,-11.69 54.84,-117.65 67.27,-307.21 -86.37,-2287.54 71.94,-2394.57 123.77,-19.88 420.17,-26.88 497.39,18.46l80.7 0c71.26,-47.17 266.53,-30.5 389.03,-20.14l148.36 -3.7 297.83 4.71 136.01 -9.78 474.36 8.18c5.86,50.08 3,102.25 7.28,132.71l45.8 166.35 5.27 -201.45 762.69 12.84c324.58,-35.5 1056.15,-47.24 1391.46,23.16l75.62 -2.99c6.1,-1.54 16.01,-6.93 22.77,-8.83 156.37,-43.94 259.62,-38.35 429.01,-34.6 288.56,6.36 170.54,20.18 256.24,188.43l74.36 -182.35 1388.07 6.82c16.21,188.44 35.34,186.48 5.93,356.47l-5.43 74.15c247.54,10.84 288.75,20.81 391.62,-147.16l0.9 -171.7c-110.08,-220.27 -22.3,17.49 -120.09,-185.2 1390.01,92.85 2322.7,-297.31 2007.52,498.75l290.48 12.25c4.12,-184.5 -61.14,-547.9 40.16,-688.39l433.2 2.83 100.69 1.95 435.15 -11.08 99.44 3.74 441.86 5.05 97.67 1.31 437.26 -9.04 106.06 0.73 432.39 10.82 107.19 -1.52 428.73 -8.28 104.41 -2.09 461.86 0.61 27.18 2930.95 21.69 16.52 0 -3108.03 -15342.77 0 4.86 3109.42 465.06 22.08 -446.3 -2758.57 555.97 -92.84c72.91,184.42 291.99,1622.48 351.21,2009.79 35.48,232.04 94.6,517.16 106.34,721.89 -109.12,67.08 -184.62,77.25 -331.99,81.73z"/>
    <path class="fil1" d="M16834.25 4004.89l1047.65 -9.9c48.57,-65.18 16.34,-14.86 48.69,-92.88 4.44,-10.72 13.64,-60.07 25.65,-92.65l552.07 -69.78 6.35 369.12c-10.46,430.4 162.46,1231.56 96.6,1621.34 80.38,136.48 96.99,656.21 80.69,832.89l-562.32 41.54 -158.09 -2042.27c-29.71,462.18 21.93,1749.56 -61.09,2048.24l3020.38 6.81 0 -3126.19 -4861.09 3.3 -5.41 160.97 775.9 -8.8 -5.98 358.26z"/>
    <path class="fil1" d="M-40.04 17907.49c371.12,0 929.32,-97.61 1050.45,113.38 60.48,105.35 140.33,495.69 -164.52,557.35l-214.57 46.52c162.16,91.07 51.63,242.8 34.6,367.83 -0.42,3.16 -1.85,13.4 0.51,19.43l362.89 13.73c-44.93,113.58 -49.48,79.35 -140.36,128.65l8.58 330.66 -937.58 1.17 0 122.83c198.33,0 396.6,-0.55 594.92,-0.02 99.28,0.26 204.34,-3.91 302.03,-2.23 150.72,2.61 170.99,-31.48 208.8,65.59 -10.49,247.1 -12.95,241.48 108.92,380.8 -167.27,12.9 -179.32,-2.85 -265.26,68.01 274.23,158.17 122.43,283.67 31.56,479.82l930.63 -80.17 216.74 -2758.78 548.79 53.85c38.28,129.88 4.61,107.47 74.36,183.33l409.2 6.11c164.07,-74.41 50.83,35.42 101.69,-162.47 2.42,-9.43 4.57,-151.9 9.49,-186.87l1026.33 -19.44 1074.43 0.57 31.09 371.56 -5.98 383.98 -5.92 1477.76 7.23 378.54 6.74 41.86 -28.65 310.14 871.96 -13.38c-128.22,-27.82 -90.85,5.12 -189.44,-66.69l207.62 -2731.87c172.79,-49.47 388.28,2.96 570.56,19.79l-0.32 167.62 1045.16 25.2c60.85,70.83 26.73,-20.79 25.09,110.14l59.71 -229.37c9.53,-95.34 5.81,-154.62 23.07,-248.16l698.1 13.79 44.01 -175.17 -8732.66 -1.66 0 436.27z"/>
    <path class="fil7" d="M20930.83 13617.87l0 -365.93 -744.37 6.41 14.02 -355.58 -61.75 -1.24 14.69 371.75c-245.23,-7.15 -510.51,-6.34 -747.07,-7.02 -233.09,-0.68 -467.37,26.87 -708.48,-1.82l4.11 -351.86 -44.22 0 -0.16 354.99c-487.8,8.91 -955.22,2.34 -1452.97,10.08l22.09 -367.76 -3.21 -1317.93 -4.19 -365.87 1444.05 11.44 -12.81 364.27 62.55 0.78 -10.21 -376.82 704.23 10.48 -1.34 353.06 40.69 0 6.28 -353.3c241.75,-29.07 498.56,2.92 734.42,-1.66 250.7,-4.86 492.83,-26.35 743.65,14.8l0 -768.82 -4854.17 1.43 0.19 3110.74c323.85,79.95 1942.68,23.23 2399.94,23.21 817.39,-0.03 1636.3,-5.59 2454.04,2.17z"/>
    <path class="fil6" d="M8043.79 7854.57c54.75,132.79 35.48,252.61 21.91,402.59l-336.39 2.21 -2.62 50.61 345.6 6.09c6.02,158 25.15,251.34 -29.33,403.24l-310.76 10.86 -0.09 42.96 328.62 6.98 1.17 672.38 -331.86 8.55c-108.23,81.25 -1145.31,54.19 -1189.96,48.39 -191.16,-24.88 -77.55,4.42 -142.76,-52.72l-321.38 -6.89c-19.79,-200.74 -62.38,-464.48 -0.67,-658.62l319.34 -18.5 -9.57 -46.01c81.66,-154.61 33.68,-695.29 29.36,-913.94 -384.12,-28.35 -456.4,-25.19 -475.87,211.81 -5.15,62.63 1.84,159.86 1.64,226.06 -0.49,161.64 -4.45,270.78 9.61,435.4l-3.71 819.37 -203.72 7.06c-64,58.65 -75.63,-68.8 -49.29,71.62 167.61,17.16 57.47,-10.42 142.67,46 119.53,-112.97 437.67,-54.78 593.97,-55.49l1958.52 6.97c82.05,290.27 66.86,173.21 -1.28,449.59l-2548.02 -69.07c-161.06,128.72 -183.2,-24.77 -147.24,167.61l5088.12 13.59 -83.8 -98.79c-39.05,-76.03 -29.27,-925.42 -28.82,-1037.16 -14.29,-572.89 47.8,-1335.13 -12.8,-1860.9l-1995.31 0.72c-45.38,359.19 -12.13,892.27 -13.28,1289.62 -1.18,411.98 -3.2,843.68 -15.06,1228.45 -143.71,-136.3 -170.75,-158.9 -438.67,-148.01 69.12,-261.32 19.32,-597.81 25.87,-857.34 3.44,-136.69 -2.3,-285.84 -0.7,-409.08 1.95,-149.06 20.24,-253.16 0.51,-407.17l-173.95 10.96z"/>
    <path class="fil6" d="M-40.04 6651.82l2378 -18.86 130.58 -92.5 -6.52 -516.92c8.46,-102.65 10.35,-58.12 17.6,-87.44 103.03,-416.48 -131.47,-547.66 75.15,-820.81 91.35,-120.76 87.06,-355 51.8,-505.31 -18.82,-80.24 -26.16,-70.32 -32.91,-86.16 -13.5,-31.69 -27.29,-46.6 -39.12,-80.31 -92.09,-262.56 -86.4,-448.18 -108.77,-759.31l-2465.81 8.71 0 2958.91z"/>
    <path class="fil8" d="M-40.04 8245.96c252.41,-34.56 372.89,115.09 369.9,336.67 -0.74,54.36 -53.62,212.74 -82.1,256.15 -84.46,128.77 -137.15,97.24 -287.8,78.7l0 1210.65 2565.15 -7.14c11.04,-463.21 -17.79,-1011.79 -11.71,-1422.9 2.73,-184.29 21.14,-479.02 16.29,-707.52 -2.76,-129.99 -0.89,-243.93 2.3,-372.64 2.18,-87.66 6.12,-281.01 -49.38,-330.7 -133.39,-65.57 -2176.01,-29.49 -2522.65,-29.37l0 988.1z"/>
    <path class="fil9" d="M7471.73 6630.95c14.38,-444.07 2.87,-914.11 2.37,-1391.87 -0.23,-223.25 0.19,-446.27 -0.22,-669.28 -0.21,-112.37 -3.43,-223.13 -4.78,-334.87 -1.14,-94.66 -9.28,-266.93 49.59,-353.99 83.32,538.69 489.83,2025.35 481.41,2361.88 365.22,-19.3 446.34,-38.63 397.22,-281.4 -6.32,-31.28 -39.17,-144.59 -50.08,-185.78 -167.27,-631.69 -300.87,-1444.5 -467.43,-2073.93 -81.8,7.8 -155.7,28.7 -240.87,41.05 -289.63,41.93 -74.12,6.51 -224.12,-31.35l-1821.51 -12.67 9.13 -224.77c-105.02,132.1 -64.88,543.6 -64.95,761.19l4.46 2007.67c-1.94,117.21 -23.54,199.07 10.31,300.19 34.67,103.53 0.67,37.92 59.42,108.8 8.57,-11.38 16.35,-44.37 19.02,-38.28l18.17 -221.8c219.41,-51.85 333.81,20.41 520.53,1.52 111.13,-11.23 84.5,-35.96 257.55,-27.03 173.89,8.97 115.66,32.66 300.02,26.19 -52.05,82.2 -87.39,89.94 -87.91,90.78 -77.57,126.27 -74.26,-38.22 -23.45,94.26 33.07,11.76 40.52,43.7 179.91,57.15 12.35,1.19 148.86,4.43 158.32,3.88 225.25,-13.3 234.84,-188.12 494.07,-22.85 4.51,2.87 14.92,12.19 23.82,15.31z"/>
    <path class="fil10" d="M18055.87 10120.94c25.59,-19.77 -6.22,-32.36 107.84,-59.12l-320.62 -2082.42 1053.25 2137.49 94.64 1.22 196.56 -111.24c-22.95,-154.37 -982.39,-2135.1 -1082.57,-2238.34 -78.03,23.35 -201.06,62.2 -277.97,86.38l-56.67 -224.27c-486.19,5.35 -1205.93,-48.59 -1709.4,12.62l9.58 -643.06 -9.88 3096.53c407.36,82.73 1514.61,16.77 1995.24,24.21z"/>
    <path class="fil1" d="M5691.68 10129.68c-35.96,-192.38 -13.82,-38.89 147.24,-167.61l-3.19 -332c-85.2,-56.42 24.94,-28.84 -142.67,-46 -26.34,-140.42 -14.71,-12.97 49.29,-71.62l-21.93 -1633.41 164.81 -74.38c-216.94,-136.06 -122.66,-465.67 -4.09,-618.18l1767.92 -16.41c-2.88,8.14 -210.31,330.02 -48.7,571.47 21.83,32.62 92.25,85.36 135.59,109.68l307.84 3.35 173.95 -10.96c19.73,154.01 1.44,258.11 -0.51,407.17 -1.6,123.24 4.14,272.39 0.7,409.08 -6.55,259.53 43.25,596.02 -25.87,857.34 267.92,-10.89 294.96,11.71 438.67,148.01 11.86,-384.77 13.88,-816.47 15.06,-1228.45 1.15,-397.35 -32.1,-930.43 13.28,-1289.62l1995.31 -0.72c60.6,525.77 -1.49,1288.01 12.8,1860.9l24.45 -59.5c55.31,-224.98 -19.7,174.17 15.86,-65.18l-11.62 -1114.97 34.1 -130.77 2511.74 -8.87 12.75 176.27c5.69,375.02 -77.89,911.7 -5.47,1312.23 -30.25,233.07 3.77,385.02 -60.4,591.77l76.08 -1.4 185.73 -2428.72c203.09,-58.37 346.8,4.36 555.1,16.01l13.45 175.25c164.89,3.91 429.09,-16.15 536,44.07 95.22,-321.3 -135.51,-378.04 425.94,-353.58l174.64 -26.78c164.51,-32.17 318.76,-34.47 482.19,2.68 85.8,-57.27 67.32,126.53 71.57,-112 -180.12,-88.96 -2008.93,-38.31 -2512.4,-37.76l-6321.01 0.81c-348.28,0.02 -967.08,-36.89 -1282.65,13.78 -42.91,748.31 13.56,1959.48 -2.22,2813.7 -3.61,195.74 -50.97,251.44 100.67,315.32z"/>
    <path class="fil11" d="M13071.03 1125.5c-161.22,-46.82 -470.02,-47.04 -637.52,1.56l-108.64 -1.94c-164.28,-51.05 -457.55,-42.16 -634.29,-3.38l-107.81 0.64c-178.66,-51.07 -439.79,-20.71 -639.97,-12.4 -226.99,103.87 -433.15,5.63 -713.45,77.57l-7.45 1161.38c278.21,62.24 2625.23,21.79 3235.27,23.06 337.29,0.69 804.17,26.32 1120.2,-0.31l-6.48 -1171.99c-463.84,-116.54 -1100.81,22.04 -1499.86,-74.19z"/>
    <path class="fil12" d="M15009.39 14287.03c88.63,-125.83 -116.37,-59.5 193.01,-83.24l1441.98 5.33c-10.35,120.31 13.69,127.05 16.94,253.74 2.45,96.02 -13.45,141.21 -21.45,220.55 -50.18,31.8 -21.63,20.64 -98.42,39.55l-1529.92 17.57 11.63 -163.55c-26.37,74.02 -7.26,67.95 -58.08,157.64 -7.06,12.46 -39.12,55.72 -48.38,65.87 -5.19,5.71 -13.78,13.11 -19.07,18.27l-58.87 1671.33c-177.5,62.85 -136.57,45.6 -221.14,226.11l2.69 133.21c137.19,252.3 215.97,225.62 547.04,223.6 536.91,-3.26 2095.35,35.5 2410.52,-13.12 -59.72,-132.97 18.22,-19.82 -149.34,-99.01 -59.46,44.9 -28.53,44.36 -250.62,43.51l-2294.54 -7.64c-59.77,-163.79 -63.4,-275.59 6.89,-444.04 368.09,-35.34 1713.1,0.03 2288.45,-8.1 130.7,-1.85 200.77,-32.32 248.06,55.7 6.48,-4.45 48.1,-24.85 60.68,-32.74l88.2 -62.23c-85.92,-154.94 -39.03,-1392.42 -23.85,-1679.57l-200.42 -2.88 -21.84 388.27 -452.16 20.58 -19.7 -396.34 366.26 -0.44c-148.19,-62.56 -367.61,-13.55 -561.05,-7.64 70.35,-139.92 100.72,-121.41 123.09,-263.08 15.53,-98.34 6.34,-206.45 -30.48,-286 -78.75,-170.14 -296.38,-120.02 -509.5,-120.14 -368.67,-0.18 -970.91,-34.51 -1306.31,4.56 0.36,38.99 5.39,20.1 15.91,38.75 1.88,3.36 7.95,13.95 10.24,17.83l43.55 67.79z"/>
    <path class="fil11" d="M18713.11 11602.58l-62.55 -0.78 -1427.05 -9.84 3.21 1317.93c232.54,-3.85 556.43,21.87 723.6,15.56 234.9,-8.87 474.47,-5.28 707.44,-12.87l44.22 0c446.85,-3.82 1037.41,50.72 1436.75,-11.05l61.75 1.24c231.62,17.68 540.03,-24.18 730.35,37.76l0 -1387.55c-181.47,73.5 -572.96,24.3 -746,20.67 -154.21,-3.23 -506.52,14.38 -738.35,15.65l-40.69 0 -692.68 13.28z"/>
    <path class="fil8" d="M19293.45 10120.35l1637.38 10.35 0 -2872.81 -1619.3 2.53c-65.24,404.27 -15.01,969.72 -18.71,1399.44 -4.23,493.35 -13.45,978.94 0.63,1460.49z"/>
    <path class="fil13" d="M-24.58 825.85l-10.49 237.42c149.05,-27.76 1200.94,-30.57 1222.05,-99.98 -73.31,0 -152.31,-2.9 -224.86,-0.51 -9.86,0.33 -108.41,6.89 -110.02,7.17 -268.86,47.83 209.82,-66.2 -66.94,17.68l356.66 38.75c-22.16,91.28 7.79,116.97 7.79,345.73 -641.11,52.09 -484.18,0.94 -778.21,-19.37 -115.72,-7.99 -210.98,20.69 -337.07,20.31 -107.45,182.95 -37.1,502.2 -19.64,826.12l569.95 3.24c-9.06,-99.62 -27.72,-76.29 -40.89,-113.93 -12.21,-34.93 -26.22,32.29 -26.24,-116.51 -92.89,59.9 -161.42,149.98 -314.76,92.26 -309.05,-116.3 -104.93,-775.93 228.65,-536.79l131.88 127.41 15.25 -212.77c21.15,7.67 29.41,11.01 30.96,26.72 2.6,26.29 32.02,13.65 24.33,123.88 -5.88,84.23 -33.36,61.96 -31.63,187.88 2.82,206.17 63.53,126.16 37.05,415.77 95.12,3.99 192.16,2.73 287.81,-4.44l280.65 -22.08c110.85,-3.24 518.85,-20.63 660.58,29.36 -25.74,-128.13 -15.41,-50.35 -41.58,-89.42 -14.04,-20.96 -43.81,-38.54 -64.24,-68.69 -170.93,30.83 -260.7,61.4 -358.47,-69.17 -74.84,-99.92 -89.03,-225.19 -11.16,-355.84 177.89,-298.46 447.55,-94.85 414.89,313.61 103.25,-74.91 84.97,89.37 85.72,-79.96 97.2,232.71 9.61,173.64 57.31,489.34l36.41 -157.88c55.04,-1.08 504.42,-27.91 526.1,-26.06 -30.62,-162.88 -43.93,-113.03 49.46,-243.42l24.46 63.22c58.63,254.61 -54.94,36.38 45.68,268.52 33.68,-83.94 344.48,-48.71 450.24,-53.12 12.95,31.19 16.02,21.3 29.8,108.09l7.37 412.1 -447.77 1.37c-14.97,2.96 -23.59,6.63 -37.02,10.18l-72.57 30.5 26.73 346.41 579.11 -49.07 4.55 -1286.38c34.8,-424.23 50.77,-683.03 2.34,-1116.39l-583.12 -3.47 -48.14 128.01c-4.74,-9.22 -10.64,-20.32 -15.32,-29.8l-40.7 -97.39 -2482.74 0 -30.2 181.39z"/>
    <path class="fil14" d="M3120.65 18005.35c12.05,67.34 47.4,176.42 47.75,178.42 -107.75,46.87 -164.6,50.92 -309.69,44.97 -195.18,-7.97 -124.14,-6.25 -254.3,-56.28 -28.11,163.59 -15.27,460.94 -32.18,638.76l-127.85 1547.7c-4.47,57.46 -15.74,63.38 -7.72,127.18 15.58,123.99 -0.15,72.89 51.7,146.3 365.28,0 163.71,-7.05 187.74,-269.49 12.29,-134.24 -20.28,-33.59 35.54,-123.84l479.06 28.15 -36.2 252.33c55.45,100.49 -66.68,37.11 114.5,106.72 -3.03,-67.96 -13.21,-155.91 -14.88,-219.67 -3.32,-127.41 -19.88,-12.93 6.09,-182.83 -43.36,-103.89 -34.7,-244.74 -11.1,-373.84l5.22 -1447.94 0.8 -403.61 432.38 12.69 0.05 371.85 -1.8 1498.43 -6.05 342.42c9.92,138.29 -10.07,147.67 -5.99,251.31 1.51,38.43 5.56,51.86 14.47,88.58l27.19 57.5c139.91,-149.66 53.2,-724.74 37.37,-777.52l0 -1445.72c53.5,-124.56 21.76,-227.64 36.81,-370.08 108.66,-49.43 283.18,-22.64 440.99,-18.88l0.43 374.53c-61.53,241.05 -40.11,1199.82 -16.29,1482.74 39.18,87.18 -30.38,841.51 36.47,730.15 3.24,-5.39 13.03,25.14 21.96,36 96.48,-39.46 166.38,-19.95 152.66,-175.8 -21.42,-243.34 -21.8,71.66 -92.87,-153.96 83.68,-31.52 186.82,-51.3 278.6,-47.95 289.64,10.58 180.81,-47.25 219.35,154.28 109.3,-215.17 330.9,-168.8 534.89,-118.11l-6.74 -41.86c-114.33,9.65 -337.65,45.11 -429.65,-9.82 -80.7,-48.19 -56.62,27.08 -61.08,-159.94 -1.69,-71.04 11.24,-149.41 23.37,-213.98l-0.72 -1478.01 -1.31 -379.1 474.06 0.57 -31.09 -371.56 -1074.43 -0.57 -1026.33 19.44c-4.92,34.97 -7.07,177.44 -9.49,186.87 -50.86,197.89 62.38,88.06 -101.69,162.47z"/>
    <path class="fil1" d="M-40.04 14408.11l334.23 -23.89c55,177.53 -24.57,185.83 38.34,285.71 65.64,472.08 189.56,1742.81 144.49,2183.32l23.91 -59.73c1.87,-8.24 6.87,-21.32 8.77,-31.72l9.42 -180.65c7.81,-602.76 -18.85,-1690.59 32.09,-2168.85l464.32 -0.95c86.91,74.46 160.32,58.11 356.85,59.81l2604.51 1.1c222.81,-8.08 304.15,-66.72 323.57,121.69l38.53 -54.03c122.95,-119.07 137.98,-69.6 454.57,-72.97l1763.34 17.05 11.97 314.85 126.36 14.41c-67.33,-225.52 -126.67,-415.92 32.11,-687.4 255.94,-19.97 1213.8,-40.97 1436.08,23.83 19.38,141.18 67.2,39.97 -61.81,64.13l-2.24 566.28c11.02,2.35 27.4,-3.28 32.52,9.18 4.84,11.76 24.43,6.87 30.8,8.25 176.25,38.07 407.96,5.71 514.36,59.53 20.66,-228.72 44.34,-663.18 -15.57,-873.42l-8701.52 -5.6 0 430.07z"/>
    <path class="fil8" d="M12223.18 20550.68l1459.87 3.72c26.83,-433.98 110.25,-2547.13 -34.45,-2824.47 -156.87,-58.24 -443.99,-30.86 -645.64,-30.21 -39.98,460.55 -30.55,1492.53 -30.02,2040.49 0.1,111.7 0.84,223.64 0.48,335.22 -0.34,104.69 10.34,255.45 -39.45,340.27l-28.68 -2709.56 -676.8 -6.5c-46.65,449.38 -26.94,983.03 -16.08,1373.41 13.64,490.37 -45.46,993.16 10.77,1477.63z"/>
    <path class="fil1" d="M18990.98 10118.11l302.47 2.24c-14.08,-481.55 -4.86,-967.14 -0.63,-1460.49 3.7,-429.72 -46.53,-995.17 18.71,-1399.44l1619.3 -2.53 0 -271.65 -4860.32 13.96 -9.58 643.06c503.47,-61.21 1223.21,-7.27 1709.4,-12.62l56.67 224.27c76.91,-24.18 199.94,-63.03 277.97,-86.38 100.18,103.24 1059.62,2083.97 1082.57,2238.34l-196.56 111.24z"/>
    <path class="fil6" d="M14409.35 6438.31l-44.48 -55.89c6.97,-18.05 56.08,82.03 6.61,-49.21 -45.49,-120.72 -59.16,-35.69 -59.11,-23.31 147.58,-70.04 97.26,145.05 87.26,-438.72 -5.46,-318.89 -24.8,-1324.64 22.21,-1524.48l-56.19 -146.84c-15.48,-113.16 105.84,41.44 -45.15,-109 -77.75,-77.48 -211.4,-52.56 -342.78,-52.82 -28.35,33.71 -58.91,31.98 -60.05,140.03 -6.82,-11.01 -31.8,-60.01 -35.27,-65.05 -81.3,-117.96 -188.39,-61.69 -501.63,-71.5 -160.48,-5.03 -321.32,-0.13 -481.34,-4.3 -60.85,-74.29 -47.53,-127.07 -111.35,-188.49 0.65,143.29 -26.41,2564.02 17.01,2694.29 33.25,99.81 0.82,38.87 57.16,108.8 70.29,-99.07 2.73,-119.43 74.37,-200.77l508.05 9.52c129.04,59.11 -16.84,-27.99 73.55,56.73 11.29,10.58 17.12,18.52 27.63,29.25l59.86 68.09c-28.82,-221.27 -104.18,-185.54 186.1,-185.54 120.17,92.39 -11.12,-53.81 20.33,38.92l54.03 183.8c107.2,-50.2 -66.7,132.23 67,-86.5 109.8,-179.65 -141.16,-119.89 476.18,-127.01z"/>
    <path class="fil12" d="M3881.38 293.53l47.05 37.65c3.38,3.09 16.63,15.56 19.97,18.64 3.13,2.89 10.85,13.52 17.89,18.37l-30.2 296.78c16.72,-8.79 27.91,-39.73 34.18,-31.45 5.97,7.87 19.48,-22.44 27.7,-29.62 71.82,-62.78 -24.61,-109.56 414.56,-58.31 136.12,15.89 35.56,1.41 34.6,20.24 -0.04,0.78 -1.15,7.82 -1.01,8.83 0.19,1.38 2.06,10.15 2.56,11.83 26.68,90.62 43.29,8.57 47.53,103.65 -236.5,79.94 -378.25,50.87 -591.15,-16.89l15.36 503.05c168.13,184.97 -22.66,1173.65 87.98,1539.82 -35.68,141.26 -38.85,285.52 10.71,394.63l-4059.15 9.27 0 34.29 5262.27 -16.01c68.62,-186.82 51.47,-2757.14 32.63,-3141.94l-38.19 0c-14.45,217 -2.19,73.92 -51.17,141.76l-567.67 -3.81 -64.35 364.15 -483.46 -7.06 -52.87 -186.17 -115.77 -11.7z"/>
    <path class="fil11" d="M5742.35 9512.45l203.72 -7.06 3.71 -819.37c-14.06,-164.62 -10.1,-273.76 -9.61,-435.4 0.2,-66.2 -6.79,-163.43 -1.64,-226.06 19.47,-237 91.75,-240.16 475.87,-211.81 4.32,218.65 52.3,759.33 -29.36,913.94l9.57 46.01 2.71 684.01c65.21,57.14 -48.4,27.84 142.76,52.72 44.65,5.8 1081.73,32.86 1189.96,-48.39l2.07 -687.91 0.09 -42.96 -5.51 -420.19 2.62 -50.61 6.64 -408.15c-43.34,-24.32 -113.76,-77.06 -135.59,-109.68 -161.61,-241.45 45.82,-563.33 48.7,-571.47l-1767.92 16.41c-118.57,152.51 -212.85,482.12 4.09,618.18l-164.81 74.38 21.93 1633.41z"/>
    <path class="fil2" d="M14018.95 7469.44c-126.09,142.53 -95.35,1005.11 -122.77,1275.05 -36.87,362.94 -103.38,936.47 -104.18,1291.3l-529.42 1.91c-81.48,38.77 -12.56,-16.38 -52.26,105.59l1847 -0.08c136.38,-35.77 60.47,12.46 123.6,-69.46l-11.93 -721.32 7.41 -1475.13 -20.87 -744.15 -174.64 26.78c-561.45,-24.46 -330.72,32.28 -425.94,353.58 -106.91,-60.22 -371.11,-40.16 -536,-44.07z"/>
    <path class="fil9" d="M16834.25 4004.89c79.75,90 57.39,152.48 51.58,302.94l3.01 1985.86c-6,109.92 -6.81,205.92 -7.32,332.71l-810.45 -17.45 103.67 14.24c47.59,2.69 92.38,1.86 142.76,1.56 719.56,-4.14 1405.2,59.03 2159.29,12.59 815.58,-50.23 1632.8,31.27 2454.04,-1.95l0 -18.04 -3020.38 -6.81c83.02,-298.68 31.38,-1586.06 61.09,-2048.24l158.09 2042.27 562.32 -41.54c16.3,-176.68 -0.31,-696.41 -80.69,-832.89l1.67 318.83 -398.94 6.58c-35.13,-333.23 -149.24,-1505.08 -102.82,-1752.5 352.82,-10.66 302.95,23.78 386.05,-67.89 -51.69,-75.64 32.85,-27.9 -78.95,-51.54 -66.81,-14.14 -143.19,34.9 -419.32,-15.65 86,75.38 62.92,-40.29 -5.35,-30.82 143,-34.29 342.58,-80.96 521.06,-28.35l-6.35 -369.12 -552.07 69.78c-12.01,32.58 -21.21,81.93 -25.65,92.65 -32.35,78.02 -0.12,27.7 -48.69,92.88l-1047.65 9.9z"/>
    <polygon class="fil15" points="14620.31,16849.41 14617.62,16716.2 14611.55,14392.32 13248.14,14387.88 13234.87,17054.61 14607.59,17059.68 "/>
    <path class="fil16" d="M8589.7 5692.17c85.58,-84.8 183.87,-58.16 405.38,-56.15l1406.31 3.02c36.33,217.29 37.13,133.44 4.58,357.33l-1827.63 -15.64c-264.3,19.27 -41.02,-44.07 -135.58,108.81 564.01,-36.72 1738.41,104.39 2147.38,-72.57 64.06,-261.51 65.24,-222.14 -76.75,-443.26l83.53 -26.35c305.31,-123.72 228.99,-458.29 -3.48,-518.12l205.82 -94.76c-57.38,-110.75 -55.86,-94.89 -11.14,-249.3l14.2 -46.58c1.26,-4.2 6.14,-14.59 6.28,-22.33l-355.1 -116.16c-120.56,-243.29 -55.63,-406.44 44.27,-577.45 -328.33,-8.83 -1547.43,-40.94 -1789.64,26.24 -86.78,114.94 -151.56,267.44 -110.87,456.43 46.07,214.04 222.17,203.49 434.39,181.15 -55.7,125.87 -3.12,-24.71 -60.36,82.49 -24.05,45.02 -55.88,-4.84 -44.45,162.44 8.55,125 59.8,166.47 173.55,201.46l-485.35 -2.76c32.53,71.29 66.3,43.64 104.92,151.05 56.13,156.08 5.17,250.68 -107.09,337.06 -5.67,4.36 -14.3,10.49 -20.51,14.75 -6.73,4.61 -15.81,10.01 -23.08,14.56 -9.89,6.19 -44.53,25.01 -54.34,30.52 -9.1,5.11 -22.69,12.07 -30.39,16.28 -7.91,4.34 -21.86,9.59 -31.43,16.57l136.58 81.27z"/>
    <path class="fil1" d="M-40.04 825.85l15.46 0 30.2 -181.39 2482.74 0 40.7 97.39c4.68,9.48 10.58,20.58 15.32,29.8l48.14 -128.01 583.12 3.47c48.43,433.36 32.46,692.16 -2.34,1116.39l-4.55 1286.38 -579.11 49.07 -26.73 -346.41c-50.34,-44.67 -36.77,240.41 -48.4,320.05l-1666.53 18.75c-334.56,2.14 -197.86,-57.92 -235.85,-350.04l-18.95 333.5 -596.65 11.22 -36.57 -345.95 0 379.95 4059.15 -9.27c-49.56,-109.11 -46.39,-253.37 -10.71,-394.63 -110.64,-366.17 80.15,-1354.85 -87.98,-1539.82 47.89,349.84 -93.54,1514.06 -127.04,1917.07l-561.58 -33.7c-30.36,-275.44 157.46,-2378.62 198.54,-2788.74l451.04 22.6 115.77 11.7 52.87 186.17 483.46 7.06 64.35 -364.15 567.67 3.81c48.98,-67.84 36.72,75.24 51.17,-141.76l-5256.71 0 0 829.49z"/>
    <path class="fil17" d="M10667.18 9007.32c-0.45,111.74 -10.23,961.13 28.82,1037.16l83.8 98.79 2430.52 0.02c39.7,-121.97 -29.22,-66.82 52.26,-105.59l2.09 -330.8 -76.08 1.4c-351.31,30.03 -902.11,-14.33 -1169.58,12.64 -371.17,37.43 255.21,31.86 -98.27,1.23 -50.67,-4.38 -106.97,-15.42 -169.81,-18.61 -471.31,-23.99 -914.58,134.46 -981.23,-115.48 -31.19,-116.94 -11.16,-328.9 -0.15,-451.54l456.92 7.49 37.13 -223.71c182.55,75.85 106.91,33.7 148.54,209.05l483.27 19.69c4.92,-24.62 7.16,-180.08 74.46,-260.05 8.45,10.7 14.84,15.42 18.26,36.59 43.46,269.67 232.06,238.54 576.66,173.46l21.5 -174.9c3.34,-9.26 8.76,-24.08 15.68,-34.72l36.17 71.96c5.57,12.34 34.79,86.44 39.78,94.71 29.42,48.62 -72.1,55.34 141.86,75.32 155.92,14.56 281.54,-25.08 429.21,-14.9 -72.42,-400.53 11.16,-937.21 5.47,-1312.23 -191,-78.13 -1139.67,-7.87 -1470.44,-31.63 -541.92,-38.92 -398.69,3.26 -446.06,106.36 67.4,146.67 -99.07,98.82 218.74,118.55 301.14,18.71 1278.11,-54.26 1592.74,-2.5l47.27 292.95c-8.12,7.41 -21.83,14.81 -27.09,18.76 -4.7,3.54 -18.76,13.24 -23.84,17.29l-60.44 106.4c-143.75,-83.74 -382.47,-84.45 -434.66,214.63l-147.17 -27.97c23.05,205.19 29.14,209.09 -42.33,314.25 -287.16,422.5 -711.36,-556.39 1.73,-417.99 19.99,-105.18 64.67,-92.46 84.22,-130.76l-502.9 -15.46c-39.07,164.8 48.8,154.37 -116.23,282.72l-18.07 -268.97 -111.25 17.79c-195.63,-20.08 -114.93,-48.98 -431.03,-6.02l-67.06 556.52c-3.23,-11.1 -3.54,-24.96 -4.36,-34.4l-13.56 -219.86c-21.81,-120.38 -1.64,-107.95 -86.69,-152.59 -3.52,-109.93 18.62,-81.24 33.04,-108.94 126.61,-243.31 -17.8,112.07 56.73,-67.23l-533.36 33.37 8.01 -399.89 530.9 -21.05c-1.54,-134.36 -11.76,-30.54 -28.86,-70.04 -31.1,-71.79 17.82,-89.4 0.97,-141.01l-567.54 0.09 11.62 1114.97c-35.56,239.35 39.45,-159.8 -15.86,65.18l-24.45 59.5z"/>
    <path class="fil18" d="M-40.04 2740.07l36.57 345.95 596.65 -11.22 18.95 -333.5c37.99,292.12 -98.71,352.18 235.85,350.04l1666.53 -18.75c11.63,-79.64 -1.94,-364.72 48.4,-320.05l72.57 -30.5c13.43,-3.55 22.05,-7.22 37.02,-10.18l447.77 -1.37 -7.37 -412.1c-13.78,-86.79 -16.85,-76.9 -29.8,-108.09 -105.76,4.41 -416.56,-30.82 -450.24,53.12 -100.62,-232.14 12.95,-13.91 -45.68,-268.52l-24.46 -63.22c-93.39,130.39 -80.08,80.54 -49.46,243.42 -21.68,-1.85 -471.06,24.98 -526.1,26.06l-36.41 157.88c-47.7,-315.7 39.89,-256.63 -57.31,-489.34 -0.75,169.33 17.53,5.05 -85.72,79.96 -61.23,35.99 -39.78,40.53 -45.26,111.4 20.43,30.15 50.2,47.73 64.24,68.69 26.17,39.07 15.84,-38.71 41.58,89.42 -141.73,-49.99 -549.73,-32.6 -660.58,-29.36l-280.65 22.08c-95.65,7.17 -192.69,8.43 -287.81,4.44 26.48,-289.61 -34.23,-209.6 -37.05,-415.77 -1.73,-125.92 25.75,-103.65 31.63,-187.88 7.69,-110.23 -21.73,-97.59 -24.33,-123.88 -1.55,-15.71 -9.81,-19.05 -30.96,-26.72l-15.25 212.77 -45.77 317.12c0.02,148.8 14.03,81.58 26.24,116.51 13.17,37.64 31.83,14.31 40.89,113.93l-569.95 -3.24c-17.46,-323.92 -87.81,-643.17 19.64,-826.12 126.09,0.38 221.35,-28.3 337.07,-20.31 294.03,20.31 137.1,71.46 778.21,19.37 0,-228.76 -29.95,-254.45 -7.79,-345.73l-356.66 -38.75c276.76,-83.88 -201.92,30.15 66.94,-17.68 1.61,-0.28 100.16,-6.84 110.02,-7.17 72.55,-2.39 151.55,0.51 224.86,0.51 -21.11,69.41 -1073,72.22 -1222.05,99.98l10.49 -237.42 -15.46 0 0 1914.22z"/>
    <path class="fil19" d="M7867.73 18111.79c12.96,187.62 -127.87,115.23 -361.08,116.36l366.11 6.61c-11.77,488.56 -57.14,1580.41 24.04,1993.74l-551.93 -42.03c-41.53,24.5 -28.02,23.49 -98.77,41.31 -139.35,35.09 -295.98,23.73 -434.12,-12.89l-7.45 -1664.51c0.52,-262.55 15.87,-42.77 -67.5,-134.46 17.41,430.54 -105.99,1407.67 -146.73,1920.35 -26.58,334.6 44.53,274.51 100.48,282.74 257.49,37.87 111.87,-59.43 125.7,-90.81l22.23 -155.73 446.18 0.14c6.18,11.32 9.67,26.01 12.85,36.49 3.11,10.23 8.46,23.56 11.96,35.84 3.35,11.8 14.54,55.64 17.7,68.88 25.66,107.39 -26.16,-21.92 15.94,93.21 2.36,-5.56 14.96,-43.52 22.91,-88.81l30.17 -144.38 446.21 -1.34 55.56 244.56 809.03 -16.24c65.16,-150.69 33.37,-1305.68 30.98,-1567.07l-0.5 -1227.78c0.6,-96.95 10,-253.02 -45.08,-333.09l-44.01 175.17 -698.1 -13.79c-17.26,93.54 -13.54,152.82 -23.07,248.16l-59.71 229.37z"/>
    <path class="fil6" d="M182.87 4569.8l0 594.72c-206.2,79.4 -148.73,-105.09 -148.73,483.37 99.41,74.07 10.76,318.06 1.97,416.66 -14.27,160.19 -2.13,384.11 -1.78,550.09l2119.2 0 0 -557.74c84.75,63.14 37.09,421.78 37.38,557.74 57.37,-69.23 42.93,-28.48 70.64,-146.12l3.54 -448.61c-238.7,-0.56 -155.24,-27.68 -223.1,148.54 -270.83,-101.67 -1249.84,-37.19 -1635.84,-37.19 -210.48,-245.06 -152.68,3.38 -223.28,-185.72l2007.85 -0.19 0 -260.08c-6.47,0.42 -16.39,-0.99 -18.44,6.23 -14.15,50.16 -347.05,31.01 -389.76,30.47 -173,-2.17 -347.94,0.29 -521.18,0.29 -314.47,0 -769.41,51.65 -966.93,-74.37 143.1,-212.88 54.32,-326.48 37.19,-483.37 214.7,-6.99 99.21,-50.18 250.54,-46.6 18.59,0.44 85.63,7.68 118.53,8.87 170.48,6.19 351.81,0.56 523.49,0.56l1040.93 0 29.8 -108.88c2.11,-13.34 3.85,-22.46 5.65,-37.4 24.66,-204.67 44.5,-418.91 -73.23,-428.72l-2044.44 17.45z"/>
    <path class="fil9" d="M17754.18 18881.44c-166.76,80.99 -293.77,197.65 -450.99,272.21 -213.79,101.4 -367.19,46.83 -600.85,75.15 -284.88,34.53 -282.1,-36.26 -420.17,-192.44 -208.33,-235.66 -321.07,-50.62 -416.58,-263.36l399.82 8.66c-85.37,-74.38 -173.15,-65.15 -300.74,-61.07 113.24,-24.94 57.46,-76.87 160.14,-143.91 18.88,-12.35 95.26,-37.56 129.15,-52.84 68.25,-30.76 12.42,-21.68 93.91,-46.78 129.33,-39.83 100.47,25.47 279.7,-62.83 106.02,-52.23 21.46,-63.79 211.01,-69.37l556.39 27.38c129.43,-2.51 451.76,-33.24 428.83,115.74 191.78,-80.47 156.42,-112.6 401.98,-149.24 168.66,-25.17 284.06,-13.87 356.71,-123 -196.73,-202.82 -607.91,-22.84 -845.93,-39.8 -65.5,-4.66 -270.69,-56.66 -408.78,-75.07 -165.7,-22.07 -283.15,-26.99 -445.24,-42.52 -258.03,-24.75 -557.65,-218.29 -737.16,95.56 -128.22,224.16 -275.8,326.18 -410.62,552.78 -87.79,-484.57 -140.55,-472.95 156.2,-825.33 -202.53,101.99 -270.93,273.66 -276.13,589.32 -312.14,97.68 -311.89,183.38 -365.49,344.67 -85.36,256.92 -110.54,27.57 -240.14,323.6 -116.36,265.79 -377.22,380.74 -396.09,632.87l752.47 15.32c220.66,-25.86 8.63,-15.21 186.47,15.09 197.91,33.72 227.48,-67.87 443.03,-35.24 146.12,22.12 239.68,51.95 400.65,-21.26l95.77 -55.3c236.97,-139.9 115.95,-72.09 374.64,-7.92 476.43,118.19 754.84,-380.02 888.04,-801.07z"/>
    <path class="fil12" d="M19333.25 4187.94c-9.64,56.04 -16.84,63.24 -6.39,123.45 16.88,97.29 2.43,42.09 43.33,101.15l5.84 -414.54 429.29 17.31 -26.9 375.6 -422.77 14.35c-14.97,267.44 -9.07,703.7 -2.54,982.59l-0.49 838.5c0.84,-4.73 3.75,19.93 7.38,29.33 -41.16,137.98 -8.58,172.2 -10.03,323.56l428.06 24.31c7.59,-19.3 14.47,-47.94 17.05,-41.88l57.46 -182.14c2.32,7.32 14.34,88.85 15.49,92.39 3.11,9.45 6.43,20.21 10.2,30.21l30.53 66.07c4.44,9.8 10.24,24.27 18.15,34.63l450.35 -13.52c-12.92,-386.01 90.45,-238.37 -39.91,-345.7 57.15,-27.92 86.7,-49.13 58.89,-297.63 -16.26,-145.17 -36.94,-129.22 -41.66,-297.32l36.28 -1337.85c19.13,-256.6 -37.74,-437.09 -35.92,-673.17l-985.77 4.02 -35.92 546.28z"/>
    <path class="fil6" d="M1521.43 17026.08c507.06,86.9 471.69,-66.49 539.47,-148.73 17.75,205.21 -38.1,145.4 91.94,164.78 110.31,16.43 129.81,-55.53 186.61,-127.78 -75.35,-62.45 17.05,-34.98 -104.35,-60.12 -158.35,-32.79 -62.11,-8.29 -94.73,22.75 108.48,-10.01 157.96,-50.19 164.45,-51.17 68.66,-10.42 22.16,-6.92 104.65,-3.54l636.44 17.53c-5.8,-16.2 -8.02,-55.49 -12.1,-50.19l-119.12 -212.1c-82.2,-85 -35.75,-717.22 -36.77,-1001.73l-5.29 -743.59c315.93,-1.22 121.38,-16 104.24,-106.35 -199.67,11.38 -88.19,-81.9 -602.3,-19.36 -31.56,245.92 26.39,1746 10.11,1927.26 -25.79,287.32 7.93,99.07 -119.22,168.87 41.56,-174.48 0,-862.01 0,-1078.1 0,-248.18 53.23,-865.37 -0.19,-1032.05l-148.68 -7.64c-7.95,12.08 -14.58,16.17 -16.87,36.9l-48.56 1896.13c-1.9,10.4 -4.41,24.53 -8.99,36.03 -161.1,-194.38 -58.77,-1745.96 -46.24,-1940.91 -179.56,18.67 -243.86,-76.55 -474.31,7.62 -36.55,123.74 20.18,1420.31 -24.57,1971.4l24.38 334.09z"/>
    <path class="fil15" d="M3401.96 7254.13c92.04,42.1 210.13,209.28 214.04,303.59 -73.8,41.27 -163.51,27.69 -264.34,64.33 -134.68,48.92 -63.92,69 -179.33,160.13l-425.37 250.64c-85.58,183.01 -63.13,490.49 25.96,663.01 16.38,-136.22 676.67,-91.77 723.79,-44.4 84.64,172.33 -12.58,119.97 -33.98,307.99 -11.61,101.98 21.06,221.35 -8.71,330.5 -28.76,105.45 13.45,22.09 -46.29,96.63 227.51,87.13 414.25,143.14 707.41,86.77 338.19,-65.04 351.14,-169.03 563.84,-282.98 -548.79,-74.22 -304.79,-504.11 -405.86,-606.15 -207.28,-126.52 -232.52,70 -444.42,-187.95 -133.07,-161.99 -46.61,-342.91 121.76,-383.98 80.5,-19.64 195.88,-14.48 280.41,-30.22 148.24,-27.62 119.62,-58.58 227.76,-105.32 166.08,-71.75 310.33,48.52 522.06,71.58 -42.7,-522.19 -1035.53,-1122.38 -1578.73,-694.17z"/>
    <path class="fil20" d="M14609.82 20551.15l3075.33 0.33c-79.59,-26.83 -184.17,48.97 -186.93,-327.58 -3.44,-469.86 116,-234.36 187.95,-358.7l-2667.34 -0.24c-391.16,-0.31 -877.51,-87.49 -1022.89,189.27 -82.34,156.76 -27.67,321.83 70.47,415.22 128.07,121.89 326.65,81.51 543.41,81.7z"/>
    <path class="fil13" d="M16071.07 6608.95l810.45 17.45c0.51,-126.79 1.32,-222.79 7.32,-332.71l-3.01 -1985.86c5.81,-150.46 28.17,-212.94 -51.58,-302.94l5.98 -358.26 -775.9 8.8 5.41 -160.97 1.33 3114.49z"/>
    <path class="fil9" d="M6737.03 18415.92c83.37,91.69 68.02,-128.09 67.5,134.46l7.45 1664.51c138.14,36.62 294.77,47.98 434.12,12.89 70.75,-17.82 57.24,-16.81 98.77,-41.31l551.93 42.03c-81.18,-413.33 -35.81,-1505.18 -24.04,-1993.74l-366.11 -6.61c233.21,-1.13 374.04,71.26 361.08,-116.36 1.64,-130.93 35.76,-39.31 -25.09,-110.14l-1045.16 -25.2 -173.42 -3.93c30.4,411.51 47.52,10.43 102.01,226.36 16.47,65.31 2.38,152.51 10.96,217.04z"/>
    <path class="fil21" d="M332.53 14669.93l-344.21 -12.93c-35.72,353.68 116.56,2030.64 194.55,2369.08l820.5 5.22c-1.25,-224.78 38.97,-405.43 37.44,-637.51l-25.28 -1982.44 -464.32 0.95c-50.94,478.26 -24.28,1566.09 -32.09,2168.85l-9.42 180.65c-1.9,10.4 -6.9,23.48 -8.77,31.72l-23.91 59.73c45.07,-440.51 -78.85,-1711.24 -144.49,-2183.32z"/>
    <path class="fil6" d="M8253.58 16282.44l0.98 -149.11c-164.5,-257.29 -396.68,-180.27 -783.76,-185.76 -160.29,-2.26 -324.03,-4.48 -483.31,0.28 -184.49,5.5 -236.48,33.7 -411.04,-11.53l-72.21 -25.9c-12.98,-164.25 -64.52,-890.25 7.9,-1061.26 4.83,-11.41 10.49,-20.77 15.31,-30.88l-29.81 -84.63c-206.82,-64.13 -360.94,-71.5 -588.5,-31.07 -28.63,140.99 14.94,1552.18 -18.44,2065.18 -12.4,190.44 -28.8,64.24 18.26,258.32l595.29 0.69c19.13,-105.75 37.77,-127.15 10.77,-215.71l26.42 -133.95c5.92,-5.98 20.21,-14.73 29.53,-23.04l-91.35 -517.75c63.15,-239.97 -1.92,-67.07 98.8,-151.34 289.23,219.83 -1.7,444.01 -36.99,489.58 204.47,4.27 234.73,-37.32 446.36,-22.94l856.07 11.86c287.45,0.05 192.47,-16.08 383.38,-69.69l26.34 -111.35z"/>
    <path class="fil8" d="M9901.07 20551.66c226.03,12.45 517.75,39.65 693.05,-24.57 74.83,-65.16 34.79,-1013.2 36.16,-1418.97 0.78,-231.83 11.82,-1271.61 -39.62,-1370.19 -147.51,-76.99 -465.49,-38.44 -666.4,-38.37l-23.19 2852.1z"/>
    <path class="fil8" d="M4409.83 6577.67l719.75 -3.65 29.01 -294.4 4 0.37c-31.75,-224.65 -32.99,-440.51 -27.77,-669.15 5.2,-227.72 -22.78,-417.72 -11.27,-601.91 26.85,-429.8 19.5,-859.41 3.69,-1283.02l-699.39 -9.42 -18.02 2861.18z"/>
    <path class="fil9" d="M10668.71 16985.23c-2.24,-146.58 -20.54,-136.92 -26.25,-263.35 -184.68,-435.16 -310.67,-1192.56 -467.62,-1658.68 -154.11,18.31 -347.85,123.53 -485.62,82.98 -367.75,-108.21 -492.21,-40.8 -498.16,-39.38 -8.06,1.92 -24.59,20.07 -30.27,10.9 -5.62,-9.06 -20.14,6.94 -29.52,11.89 -2.67,146.24 -80.83,142.65 87.29,148.92l-96 0 -15.49 1638.77 546.69 -26.07 10.81 -1536.44 90.07 207.89c16.17,58.37 37.64,136.01 57.86,200.59l364.39 1312.99c256.1,4.6 282.23,-53.4 491.82,-91.01z"/>
    <path class="fil8" d="M4349.72 6544.84l11.19 -2053.49c-18.38,-249.54 11.59,-487.05 4.84,-758.97l-698.76 -16.39c-36.95,556.88 -24.39,1193.92 -23.13,1783.36 0.62,287.49 -15.93,622.15 -5.56,897.98 8.27,219.93 19.82,184.68 259.67,183 149.89,-1.06 346.72,12.68 451.75,-35.49z"/>
    <path class="fil8" d="M2603.45 6534.48c211.08,14.11 491.5,79.02 671.31,22.18 4.46,-9.31 9.83,-34.07 11.59,-28.74l323.11 -2753.76 -672.96 -88.14c-91.33,200.8 -357.59,2600.21 -333.05,2848.46z"/>
    <polygon class="fil8" points="11444.55,20550.18 12160.65,20553.8 12148.87,17710.37 11457.92,17699.8 "/>
    <path class="fil8" d="M9168.47 20539.92c154.29,44.11 501.43,36.75 651.52,-9.27l37.93 -121.83c10.48,-64.78 8.36,-121.03 6.91,-184.27 -13.25,-576.63 -35.67,-1945.51 1.37,-2379.52l-754.94 -1.86c60.14,640.53 -8.49,2343.25 14.89,2530.78l31.56 134.93c2.34,8.19 6.41,21 10.76,31.04z"/>
    <path class="fil22" d="M10140.08 3045.5c-22.62,-99.02 -33.7,-164.36 -9.49,-233.16 114.32,-52.2 569.5,-41.3 716.92,-42.26l-0.96 -323.29 -708.34 -7.32 -16.09 -1351.84 726.51 -5.75 6.21 -320.77 -728.01 -12.11c60.13,-51.01 -13.14,-79.99 356.32,-72.55 123.93,2.49 227.56,5.46 346.29,-10.81l-649.97 -53.95 -45.8 -166.35c-4.28,-30.46 -1.42,-82.63 -7.28,-132.71l-474.36 -8.18c-49.36,99.67 -14.94,420.5 -28.86,597.09 -42.79,543.09 12.97,1251.52 10.17,1806.03 -0.61,121.24 -19.4,247.29 -27.74,386.09l534.48 -48.16z"/>
    <path class="fil6" d="M4347.67 16839.8l938.67 0c-47.13,-148.83 90.83,-110.47 -188.74,-111.37l179.63 -0.19 2.45 -1970.65c-252.76,-104.67 -620.4,-74 -932.01,-74 108.03,608.89 10.56,1081.2 38.95,1598.64 12.5,227.82 13.03,324.36 -38.95,557.57z"/>
    <path class="fil23" d="M15890.96 17881.36c-296.75,352.38 -243.99,340.76 -156.2,825.33 134.82,-226.6 282.4,-328.62 410.62,-552.78 179.51,-313.85 479.13,-120.31 737.16,-95.56 162.09,15.53 279.54,20.45 445.24,42.52 138.09,18.41 343.28,70.41 408.78,75.07 238.02,16.96 649.2,-163.02 845.93,39.8 -72.65,109.13 -188.05,97.83 -356.71,123 -245.56,36.64 -210.2,68.77 -401.98,149.24 -144.3,276.63 -323,411.97 -650.55,505.19 -149.21,42.47 -376.16,80.82 -544.76,32.64 -209.14,-59.77 -160.84,-171.31 -363.08,-244.15l-399.82 -8.66c95.51,212.74 208.25,27.7 416.58,263.36 138.07,156.18 135.29,226.97 420.17,192.44 233.66,-28.32 387.06,26.25 600.85,-75.15 157.22,-74.56 284.23,-191.22 450.99,-272.21 44.19,-50.09 167.6,-161.23 247.48,-194.5 88,-110.28 113.71,-109.68 252.09,-148.48 272.17,-13.95 365.97,80.04 409.31,-172.76 58.1,-338.85 157.62,-141.97 232.52,-364.39 134.38,-399.08 -561.13,-266 -827.34,-253.2 -682.41,32.81 -1690.06,-260.47 -2177.28,133.25z"/>
    <path class="fil21" d="M20930.83 17046.86l0 -2654.44 -701.64 -1.68c-2.5,873.36 -77.61,1782.83 5.09,2663.41l696.55 -7.29z"/>
    <path class="fil21" d="M17657.45 16989.78l698.23 36.34c-1.6,-499.68 265.17,-2207.71 201.49,-2641.82l-684.14 -64.86c7.11,568.82 -243.22,1894.67 -215.58,2670.34z"/>
    <path class="fil24" d="M3752.56 12489.46c-69.58,0 -206.02,7.45 -268.15,-2.78 -183.27,-30.17 -105.01,30.7 -178.03,-108.77 -189.04,295.78 -366.04,57.82 -681.08,121.46 -189.73,38.34 -336.31,-1.42 -471.77,23.33l0 636.42 2904.42 -37.27 20.94 -101.84c0.89,-10.13 -1.95,-103.47 -1.93,-118.24 0.1,-85.06 15.68,-140.02 1.44,-219.45 -11.01,-61.35 -5.85,-38.57 -30.58,-78.72 -4.97,-8.08 -12.45,-15.81 -18.11,-23.34l-44.61 -47.45c-5.86,-6.39 -17.53,-15.37 -25,-24.25 153.76,-35.25 88.71,-73.31 131.03,-19.1 -195.56,0 -329.82,-8.95 -520.54,-1.89 -182.98,6.79 -373.77,1.89 -557.57,1.89 -34.04,-167.46 -92.29,-175.73 -111.73,-223.09l-148.73 223.09z"/>
    <path class="fil8" d="M14977.36 6579.74l671.77 7.18c-5.08,-444.72 4.03,-906.96 -1.91,-1349.85 -5.19,-387.92 -18.16,-873.89 11.98,-1299.38l-68.05 -58.75c-10.49,-8.87 -38.79,-26.48 -63.05,-52.79 93.11,-74.07 -89.2,93.43 70.38,-8.35 103.2,-65.82 -28.23,96.66 30.55,-28.84 -9.52,-5.51 -24.18,-22.75 -30.08,-13.62l-615.17 -25.66 -8.05 1415.03c-3.37,476.32 -4.29,952.17 1.63,1415.03z"/>
    <path class="fil11" d="M-40.04 10992.62l0 2604c294.58,0.35 469.93,12.98 731.5,-37.02l-2.58 -234.31c-121.74,-8.48 -239.32,-4.77 -357.21,-1.44 -400.69,11.33 -290.31,-10.82 -343.33,-58.24l15.83 -356.55 643.72 -10.6c137.94,-37.15 75.27,-387.18 76.38,-520.35l-2.95 -1133.76c5.69,-182.26 -12.97,-383.39 3.07,-563.58l13.17 241.23c-264.34,-52.07 -438.61,-38.91 -703.23,-33.78 -41.58,46.86 1.91,-10.09 -53.29,65.1 -4.1,5.58 -15.61,28.19 -21.08,39.3z"/>
    <path class="fil0" d="M3920.42 1176.3l-15.36 -503.05c212.9,67.76 354.65,96.83 591.15,16.89 -4.24,-95.08 -20.85,-13.03 -47.53,-103.65 -0.5,-1.68 -2.37,-10.45 -2.56,-11.83 -0.14,-1.01 0.97,-8.05 1.01,-8.83 0.96,-18.83 101.52,-4.35 -34.6,-20.24 -439.17,-51.25 -342.74,-4.47 -414.56,58.31 -8.22,7.18 -21.73,37.49 -27.7,29.62 -6.27,-8.28 -17.46,22.66 -34.18,31.45l30.2 -296.78c-7.04,-4.85 -14.76,-15.48 -17.89,-18.37 -3.34,-3.08 -16.59,-15.55 -19.97,-18.64l-47.05 -37.65 -451.04 -22.6c-41.08,410.12 -228.9,2513.3 -198.54,2788.74l561.58 33.7c33.5,-403.01 174.93,-1567.23 127.04,-1917.07z"/>
    <path class="fil1" d="M19709.76 20416.27l-5.84 -146.31 -148.65 -194.92 607.69 0.7c-6.58,2.51 -17.7,-19.55 -21.37,-12.93l-81.89 -90.48c-136.33,-178.62 -55.43,-325.47 88.22,-425.56 -359.39,-19.19 -426.22,-332.88 -177.82,-480.16l-175.84 -107.23c50.02,-45.74 13.46,-23.26 95.18,-36.24l0.01 -275.12 1041.38 0.56 0 -123.31 -707.72 -0.54c26.81,-350.94 63.75,-359.16 -57.6,-589.02l765.32 -0.12 0 -463.5 -1361.75 16.92 23.18 3023.77c126.8,-37.44 26.75,19.56 117.5,-96.51z"/>
    <path class="fil9" d="M6243.78 6242.82c618.95,0 481.62,38.42 483.37,-223.1 118.88,44.39 73.86,-22.68 74.37,223.1l260.27 0 -0.18 -2230.76 -260.28 -0.2 -3.53 1824.56c-29.11,116.32 -13.33,76.97 -70.65,146.12l-0.19 -1970.48 -483.36 -0.2 0.18 2230.96z"/>
    <path class="fil8" d="M11347.87 19117.87c-9.25,6.88 -18.99,17.57 -24.84,24.11l-44.69 49.33c-65.71,83.9 -72.99,181.92 -239.2,182.76 -301.33,1.52 -388.63,-443.78 -177.52,-634.5 131.43,-118.75 273.72,-40.86 395.93,-4.59 -10.7,-192.86 5.64,-34.86 -43.84,-100.17 18.29,31.92 -17.51,15.84 28.14,41.29l72.36 7.17c153.78,-83.33 78.74,15.23 78.11,-239.92 -0.55,-219.19 4.14,-385.05 15.1,-599.26 -754.51,-0.29 -761.35,-77.88 -739.25,266 4.97,77.39 -6.23,214.85 -8.51,327.79l5.5 2116.28 680.61 -3.12c22.74,-46.85 23.76,-26.53 44.54,-86.62 10.53,-30.46 20.89,-75.33 13.3,-113.46 -29.46,-148.08 31.05,-165.75 -125.17,-91.14l133.54 -0.81c-52.73,-399.98 42.26,-857.17 -64.11,-1141.14z"/>
    <path class="fil0" d="M7474.36 3054.65c111.25,22.42 27,44.86 211.26,-61.16l290.31 -166.37c-13.6,-143.61 -60.92,-173.96 -141.89,-332.71l-919.89 -1834.26c-49.57,-101.05 -88.63,-206.17 -149.81,-287.35 -177.46,64.71 -308.72,100.15 -460.1,213.93 -5.63,4.23 -19.06,27.56 -23.08,20.46 -4.08,-7.22 -15.96,13.57 -23.03,21.27l611.45 1230.88c101.6,216.67 196.9,398.23 304.92,623.44 75.46,157.33 222.58,455.39 299.86,571.87z"/>
    <path class="fil6" d="M3083.1 17025.9c43.78,10.59 83.91,17.8 137.78,9.55 101.39,-15.53 113.02,-64.93 159.86,-111.51 152.53,161.83 9.5,104.89 446.37,101.96 74.59,-178.53 16.2,-393.38 2.79,-557.74 -29.53,-361.97 -30.91,-1506.38 59.1,-1754.42 -154.46,-2.91 -328.79,-30.15 -508.07,-30.15 72.86,281.32 69.44,254.26 63.53,557.57l-15.01 1418.2 -85.1 106.6c-7.78,6.68 -20.92,15.41 -33.22,18.46 -49.22,-157.75 -6.65,175.57 17.25,-92.14l3.92 -105.56c-3.12,-85.88 -20.41,-169.98 -24.01,-267.48l-0.69 -1342.3c14.74,-239.01 10.48,-114.47 72.96,-254.42 -144.05,-42.35 -183.84,-41.75 -297.28,-5.58 -61.45,166.82 43.69,1352.64 -23.46,1899.95 -3.59,29.19 -63.16,201.86 23.28,409.01z"/>
    <path class="fil0" d="M13264.67 9706.9l-2.09 330.8 529.42 -1.91c0.8,-354.83 67.31,-928.36 104.18,-1291.3 27.42,-269.94 -3.32,-1132.52 122.77,-1275.05l-13.45 -175.25c-208.3,-11.65 -352.01,-74.38 -555.1,-16.01l-185.73 2428.72z"/>
    <path class="fil18" d="M13188.59 9708.3c64.17,-206.75 30.15,-358.7 60.4,-591.77 -147.67,-10.18 -273.29,29.46 -429.21,14.9 -213.96,-19.98 -112.44,-26.7 -141.86,-75.32 -4.99,-8.27 -34.21,-82.37 -39.78,-94.71l-36.17 -71.96c-6.92,10.64 -12.34,25.46 -15.68,34.72l-21.5 174.9c-344.6,65.08 -533.2,96.21 -576.66,-173.46 -3.42,-21.17 -9.81,-25.89 -18.26,-36.59 -67.3,79.97 -69.54,235.43 -74.46,260.05l-483.27 -19.69c-41.63,-175.35 34.01,-133.2 -148.54,-209.05l-37.13 223.71 -456.92 -7.49c-11.01,122.64 -31.04,334.6 0.15,451.54 66.65,249.94 509.92,91.49 981.23,115.48 62.84,3.19 119.14,14.23 169.81,18.61 353.48,30.63 -272.9,36.2 98.27,-1.23 267.47,-26.97 818.27,17.39 1169.58,-12.64z"/>
    <path class="fil13" d="M10642.46 16721.88c5.71,126.43 24.01,116.77 26.25,263.35l29.26 124.98 548.78 2.95c58.74,-320.07 54.05,-1469.63 53.8,-1871.99l-29.89 -598.72 -580.14 -11.94c-2.03,94.32 24.32,2014.57 -48.06,2091.37z"/>
    <path class="fil13" d="M19349.97 6579.24c1.45,-151.36 -31.13,-185.58 10.03,-323.56 -3.63,-9.4 -6.54,-34.06 -7.38,-29.33l0.49 -838.5c-6.53,-278.89 -12.43,-715.15 2.54,-982.59l14.54 7.28c-40.9,-59.06 -26.45,-3.86 -43.33,-101.15 -10.45,-60.21 -3.25,-67.41 6.39,-123.45 -155.35,-64.41 -397.79,-45.44 -608.51,-36.92l12.6 2392.9c262.09,37.68 353.18,25.09 612.63,35.32z"/>
    <path class="fil25" d="M20909.14 3087.87l-27.18 -2930.95 -461.86 -0.61c-36.84,129.88 -42.73,2808.56 -4.41,2967.57l493.45 -36.01z"/>
    <path class="fil13" d="M1229.31 20575.39l478.21 2.05c6.13,-14.09 13.05,-38.24 15.59,-32.12 2.47,5.94 11.92,-19.95 15.35,-25.26l44.92 -67.8c4.47,-5.96 11.49,-14.73 15.97,-20.37 4.53,-5.69 12.76,-14.86 16.97,-19.88l34.47 -2257.53 -609.4 -21.3 -12.08 2442.21z"/>
    <path class="fil18" d="M10695.87 7767.67l567.54 -0.09c16.85,51.61 -32.07,69.22 -0.97,141.01 17.1,39.5 27.32,-64.32 28.86,70.04l-530.9 21.05 -8.01 399.89 533.36 -33.37c-74.53,179.3 69.88,-176.08 -56.73,67.23 -14.42,27.7 -36.56,-0.99 -33.04,108.94 85.05,44.64 64.88,32.21 86.69,152.59l13.56 219.86c0.82,9.44 1.13,23.3 4.36,34.4l67.06 -556.52c316.1,-42.96 235.4,-14.06 431.03,6.02l111.25 -17.79 18.07 268.97c165.03,-128.35 77.16,-117.92 116.23,-282.72l502.9 15.46c-19.55,38.3 -64.23,25.58 -84.22,130.76 23.32,44.51 27.2,50.2 40.6,103.74l147.17 27.97c52.19,-299.08 290.91,-298.37 434.66,-214.63l60.44 -106.4c5.08,-4.05 19.14,-13.75 23.84,-17.29 5.26,-3.95 18.97,-11.35 27.09,-18.76l-47.27 -292.95c-314.63,-51.76 -1291.6,21.21 -1592.74,2.5 -317.81,-19.73 -151.34,28.12 -218.74,-118.55 47.37,-103.1 -95.86,-145.28 446.06,-106.36 330.77,23.76 1279.44,-46.5 1470.44,31.63l-12.75 -176.27 -2511.74 8.87 -34.1 130.77z"/>
    <path class="fil22" d="M1596.17 10802.51l-483.75 -7.52c-49.97,192.27 -31.78,1087.68 -32.03,1360.01 -0.41,475.86 3.99,948.97 1.64,1414.34l523.34 -3.48 -9.2 -2763.35z"/>
    <path class="fil2" d="M1596.17 10802.51l9.2 2763.35 -523.34 3.48c2.35,-465.37 -2.05,-938.48 -1.64,-1414.34 0.25,-272.33 -17.94,-1167.74 32.03,-1360.01 -85.19,-60.15 -55.98,-92.25 -161.39,-127.86 -102.46,-34.6 -136.81,-7.86 -226.64,13.64 -16.04,180.19 2.62,381.32 -3.07,563.58l2.95 1133.76c-1.11,133.17 61.56,483.2 -76.38,520.35l20.7 349.21 -680.25 17.94c53.02,47.42 -57.36,69.57 343.33,58.24 117.89,-3.33 235.47,-7.04 357.21,1.44l2.58 234.31c-261.57,50 -436.92,37.37 -731.5,37.02l0 24.63 1718.3 0.59 12.39 -3058.4c-20.04,-88.88 2.48,-32.42 -31.86,-81.14 9.33,60.92 27.74,124.17 14.13,186.58 -28.54,130.89 34.13,65.4 -76.75,133.63z"/>
    <path class="fil22" d="M8600.1 333.36c-77.22,-45.34 -373.62,-38.34 -497.39,-18.46l-17.08 2771.94 512.45 -16.65 2.02 -2736.83z"/>
    <polygon class="fil21" points="18629.72,17044.7 19162.23,17046.51 19166.78,14385.13 18656.7,14378.67 "/>
    <path class="fil25" d="M19241.32 156.65l-437.26 9.04 -15.65 2919.57c138.05,55.05 305.27,34.9 457.81,29.72 35.63,-148.99 29.8,-2842.3 -4.9,-2958.33z"/>
    <path class="fil25" d="M17629.25 164.72l-433.2 -2.83c-50.2,138.02 -52.44,2742.41 -6.3,2958.98l438.76 -7.42 0.74 -2948.73z"/>
    <path class="fil5" d="M8099.37 14780.1c-256.36,67.24 -996.02,24.95 -1309.17,22.27l6.04 -606.36c297.77,-11.66 1052.75,-43.2 1305.37,17.81 129.01,-24.16 81.19,77.05 61.81,-64.13 -222.28,-64.8 -1180.14,-43.8 -1436.08,-23.83 -158.78,271.48 -99.44,461.88 -32.11,687.4l-126.36 -14.41c-43.98,161.23 -26.78,345.19 -26.01,516.65 0.41,90.94 -6.36,173.23 -7.18,260.46 -2.45,266.98 59.42,249.36 116.92,297.1 39.35,-55.77 37.59,-29.56 142.38,-111.18l1.85 -260.65c-82.87,-53.07 -58.63,-20.04 -93.11,-111.35 81.36,-49.06 261.45,-42.45 382.67,-32.97 -10.86,-4.91 -27.59,-22.06 -33.06,-13.63 -5.3,8.16 -24.32,-9.88 -31.21,-14.93 -6.56,-4.8 -20.7,-10.64 -28.12,-17.14 -42.62,-37.38 -24.74,56.12 -69.97,-104.78 -34.24,-121.72 2.9,-217.81 31.35,-299.74 219.91,-82.57 1181.19,-67.12 1484.56,-20.05 -10.44,115.24 -28.83,145.95 -60.82,263.39l-13.54 80.9 114.82 113.98 -209.87 4.05c117.97,186.57 328.8,249.41 -18.71,598.65l2.74 185.72 -0.98 149.11 -2.14 185.72c133.94,65.59 256.78,35.71 380.57,74.37l-46.9 82.79c-96.32,126.54 -13.16,11.57 -61.5,65.75l0.4 223.47c8.34,9.14 43.81,37.05 50.74,39.88l11.71 176.25 131.14 -40.97c9.5,-528.49 2.58,-1058.83 3.53,-1588.28 0.48,-260.66 0.83,-520.47 3.77,-780.83 1.54,-136.73 -0.93,-273.27 1.29,-409.97 5.76,-354.34 19.5,-290.23 -64.71,-326.98 59.91,210.24 36.23,644.7 15.57,873.42 -106.4,-53.82 -338.11,-21.46 -514.36,-59.53 -6.37,-1.38 -25.96,3.51 -30.8,-8.25 -5.12,-12.46 -21.5,-6.83 -32.52,-9.18z"/>
    <path class="fil13" d="M5392.49 20565.16l479.42 11.59c54.02,-157.75 114.98,-35.6 113.87,-464.15 -0.5,-187.24 7.62,-376.27 1.05,-558.31 -12.55,-347.73 -15.51,-846.85 19.99,-1183.65l-633.78 -8.41c30.32,713.78 -45.26,1519.87 19.45,2202.93z"/>
    <path class="fil25" d="M18165.09 155.59l-435.15 11.08 -19.93 2915.81c60.41,27.38 25.92,17.36 101.1,29.99l357.36 2.63 -3.38 -2959.51z"/>
    <path class="fil12" d="M12676.91 14386.91c75.58,-44.98 243.17,-47.96 328.37,-19.19 128.02,43.22 24.63,-16.29 86.39,55.41 -203.95,56.55 21.9,-55.54 -373.32,77.11l426.74 8.48c27.79,385.7 30.98,344.81 -71.52,378.72 -44.64,14.77 -292.19,27.75 -409.01,-19.95l-10.85 2213.23 528.99 7.39 1.34 -2940.97 -496.07 -22.88 -11.06 262.65z"/>
    <polygon class="fil26" points="20315.69,158.4 19886.96,166.68 19869.37,3107 20316.1,3111.76 "/>
    <path class="fil21" d="M19678.66 17051.14l457.03 -4.66 14.32 -2653.81 -473.92 -10.43c1.55,880.94 -73.39,1795.22 2.57,2668.9z"/>
    <path class="fil20" d="M17428.53 16960.88l-1.76 -360.57c-47.29,-88.02 -117.36,-57.55 -248.06,-55.7 -575.35,8.13 -1920.36,-27.24 -2288.45,8.1 -70.29,168.45 -66.66,280.25 -6.89,444.04l2294.54 7.64c222.09,0.85 191.16,1.39 250.62,-43.51z"/>
    <path class="fil9" d="M18001.66 18686.94l-16.39 227.5c-92.29,353.52 -395.54,1362.09 -394.52,1565.75 211.46,34.37 293.22,90.14 513.51,82.88l433.44 -1585.28c15.99,-41.71 50.83,-65.45 52.32,-239.71 157.53,54.07 452.93,80.17 581.97,-38.97 -64.07,-55.73 -90.35,-74.73 -247.81,-80.04 -288.81,-9.74 -348.52,106.04 -581.37,-16.58l-89.06 -64.03c-138.38,38.8 -164.09,38.2 -252.09,148.48z"/>
    <path class="fil9" d="M14051.9 10035.79c77.03,32 184.66,42.28 301.51,33.33 199.27,-15.28 147.54,-17.75 191.03,-160.04 144.34,55.52 469.51,120.4 548.94,-22.2 -144.14,-62.18 -402,-115.2 -520.74,29.25l-44.64 -90.53c-4.53,-6.41 -9.96,-17.8 -15.43,-24.1 -91.37,-105.2 -268.19,-61.15 -435.96,-63.54l495.45 0c-73.79,-278.5 -84.69,-1731.46 0.4,-2007.48l-520.39 1.48 -0.17 2303.83z"/>
    <polygon class="fil9" points="12107.27,16750.17 12658.8,16748.24 12641.59,14739.11 12082.03,14716.55 "/>
    <path class="fil26" d="M19798.55 962.92c-218.47,-73.74 -296.28,-17.05 -454.59,-74.12l0.35 -352.73c177.95,-15.31 296.88,9.14 396.32,-45.33 -134.85,-50.25 -54,-4.13 -187.33,-20.8 -146.98,-18.38 -142.21,-20.3 -200.72,-71.67l435.58 -29.9 -8.39 -200.17 -432.39 -10.82 -17.14 2963.53 454.17 -13.06 14.14 -2144.93z"/>
    <path class="fil22" d="M9069.83 313.22c-122.5,-10.36 -317.77,-27.03 -389.03,20.14l7.37 2739.91 405.94 4.23 -72.7 -257.88c126.08,-166.24 68.1,-980.18 68.49,-1187.24 0.61,-315.52 26.02,-1056.91 -20.07,-1319.16z"/>
    <path class="fil27" d="M4678.98 9190.34c227.44,-249.68 586.64,-832.14 301.71,-1242.04 -211.73,-23.06 -355.98,-143.33 -522.06,-71.58 -108.14,46.74 -79.52,77.7 -227.76,105.32 -84.53,15.74 -199.91,10.58 -280.41,30.22 -168.37,41.07 -254.83,221.99 -121.76,383.98 211.9,257.95 237.14,61.43 444.42,187.95 101.07,102.04 -142.93,531.93 405.86,606.15z"/>
    <path class="fil20" d="M5838.92 9962.07l2548.02 69.07c68.14,-276.38 83.33,-159.32 1.28,-449.59l-1958.52 -6.97c-156.3,0.71 -474.44,-57.48 -593.97,55.49l3.19 332z"/>
    <path class="fil18" d="M8490.4 19277.97c-38.7,69.97 -7.4,28.06 -54.75,85.6 -107.02,57.22 -753.07,-77.17 -264.92,-714.7l324.82 29.89 149.97 -61.68 27.11 -549.93c-164.82,-59.84 -516.34,-42.27 -692.63,-24.41 -93.36,391.67 33.3,697.65 6.99,1065.37 -30.11,420.48 -43.08,671.83 -13.47,1096.16l665.76 10.37 17.48 -771.87 -189.31 -83.25c51.19,-41.16 14.91,15.06 22.95,-81.55z"/>
    <path class="fil21" d="M19239.18 17044.29l344.83 5.69c26.16,-462.79 73.54,-2318.88 -21.02,-2665.85l-310.33 -4.98c-82.21,666.08 -51.19,1969.23 -13.48,2665.14z"/>
    <path class="fil9" d="M18616.29 20554.59c106.08,8.39 209.62,18.64 308.7,9.56 208.97,-19.14 52.86,-39.13 238.71,-49.98l-6.52 -1771.01 -549.59 -8.56 8.7 1819.99z"/>
    <path class="fil22" d="M9516.02 314.23l-297.83 -4.71c-58.14,115.73 -44.55,1117.18 -45.32,1360.05 -1.54,491.87 25.78,959.27 -5.14,1427.45l375.77 -28.76 -27.48 -2754.03z"/>
    <path class="fil9" d="M4008.4 2716.12l488.17 6.75c41.65,-194.77 10.5,-746.44 9.25,-978.94 -0.77,-144.11 19.38,-864.16 -23.8,-969.05l-469.14 -46c-48.02,504.27 80.57,1587.51 -4.48,1987.24z"/>
    <path class="fil9" d="M2645.75 20240.84l540.7 -16.79c-73.43,-273.7 -58,-1698.87 8.19,-1989l-548.52 -9.35c36.55,469.42 84.38,1597.96 -0.37,2015.14z"/>
    <path class="fil11" d="M10896.84 4648.25c11.4,223.23 43.13,438.09 91.36,637.84 45.55,188.61 37.76,480.03 115.88,655.94l703.45 -76.68 -137.23 -34.86c99.35,-91.36 122.42,-77.86 94.49,-273.44 -18.55,-129.96 -34.88,-255.07 -65.93,-379.74 -106.9,-429.4 40.55,-579.14 -238.19,-613.11l-563.83 84.05z"/>
    <path class="fil6" d="M14446.76 6427.19l348.97 0.13 17.53 -123.53c0.49,-3.11 1.51,-12.02 2.1,-15.14 92.12,-484.64 139.97,-1717.42 108.7,-2245.95l-345.79 51.88c-5.45,15.15 -17.45,43.21 -23.02,64.38l-42.75 1041.19c-16.93,387.33 -70.33,858.03 -65.74,1227.04z"/>
    <path class="fil11" d="M16193.07 12821.39l664.82 92.56c21.42,-77.17 44.59,-227.59 66.03,-329.14 23.96,-113.45 40.97,-175.84 59.69,-308.81 31.72,-225.42 77.35,-477.51 55.54,-684.21l-651.77 -60.64c-17.84,119.35 -183.65,1268.68 -194.31,1290.24z"/>
    <path class="fil20" d="M5934.58 7730.3c223.47,119.16 1273.83,28.37 1615.54,41.55l2.92 -538.85c-166.98,5.86 -1508.69,-28.33 -1591.24,26.63 -119.67,79.71 -68.71,358.31 -27.22,470.67z"/>
    <path class="fil20" d="M8775.5 4522.15l1595.9 -0.08 5.91 -533.3 -1592 0.56c-51.15,238.95 -14.47,306.5 -9.81,532.82z"/>
    <path class="fil1" d="M16265.41 18781.66c202.24,72.84 153.94,184.38 363.08,244.15 168.6,48.18 395.55,9.83 544.76,-32.64 327.55,-93.22 506.25,-228.56 650.55,-505.19 22.93,-148.98 -299.4,-118.25 -428.83,-115.74l-556.39 -27.38c-189.55,5.58 -104.99,17.14 -211.01,69.37 -179.23,88.3 -150.37,23 -279.7,62.83 -81.49,25.1 -25.66,16.02 -93.91,46.78 -33.89,15.28 -110.27,40.49 -129.15,52.84 -102.68,67.04 -46.9,118.97 -160.14,143.91 127.59,-4.08 215.37,-13.31 300.74,61.07z"/>
    <path class="fil20" d="M15023.16 14576.98l-11.63 163.55 1529.92 -17.57c76.79,-18.91 48.24,-7.75 98.42,-39.55 8,-79.34 23.9,-124.53 21.45,-220.55 -3.25,-126.69 -27.29,-133.43 -16.94,-253.74l-1441.98 -5.33c-309.38,23.74 -104.38,-42.59 -193.01,83.24l13.77 289.95z"/>
    <path class="fil26" d="M9627.86 13430.98l1.86 119.85c138.22,31.65 283.28,55.35 378.35,20.02l225.41 -2187.42 -344.72 -45.16c-26.78,61.64 -4.15,-21.74 -35.49,109.45l-225.41 1983.26z"/>
    <path class="fil22" d="M18611.26 5730.14c65.86,-389.78 -107.06,-1190.94 -96.6,-1621.34 -178.48,-52.61 -378.06,-5.94 -521.06,28.35 68.27,-9.47 91.35,106.2 5.35,30.82 276.13,50.55 352.51,1.51 419.32,15.65 111.8,23.64 27.26,-24.1 78.95,51.54 -83.1,91.67 -33.23,57.23 -386.05,67.89 -46.42,247.42 67.69,1419.27 102.82,1752.5l398.94 -6.58 -1.67 -318.83z"/>
    <path class="fil20" d="M8099.37 14780.1l2.24 -566.28c-252.62,-61.01 -1007.6,-29.47 -1305.37,-17.81l-6.04 606.36c313.15,2.68 1052.81,44.97 1309.17,-22.27z"/>
    <path class="fil7" d="M18055.87 10120.94l840.47 -4.05 -1053.25 -2137.49 320.62 2082.42c-114.06,26.76 -82.25,39.35 -107.84,59.12z"/>
    <path class="fil20" d="M10926.3 6460.56l-2.96 -221.74c9.64,-131.57 7.26,-31.99 -31.76,-76.26l-2083.53 8.45c-19.66,241.99 -38.76,86.27 10.05,359.34l1891.65 -0.48c170.51,-0.8 182.18,36.47 216.55,-69.31z"/>
    <path class="fil26" d="M10269.8 13530.93c132.05,66.19 197.87,51.53 351.18,24.55l-12.1 -2181.49 -327.13 0 -11.95 2156.94z"/>
    <path class="fil20" d="M8524.01 16914.54l-0.4 -223.47c-7.1,-134.01 82.25,-131.29 -345.65,-119.01l-1343.33 4.64c-27.32,196.92 -41.98,221.6 -0.38,424.24l1493.98 9.79c315.38,-31.21 107.21,37.83 195.78,-96.19z"/>
    <path class="fil12" d="M20410.15 5870.99l490.57 -22.21 12.16 -1432.7c-223.53,6.16 -298.79,27.2 -514.28,-48.66l11.55 1503.57z"/>
    <polygon class="fil12" points="4891.65,19865.24 5351.78,19870.44 5357.7,18392.68 4890.93,18387.23 "/>
    <path class="fil26" d="M18249.9 2412.64c168.91,-46.92 291.47,-34.41 467.16,-73.6l2.74 -1379.22c-199.68,-70.5 -325.17,-32.32 -461.53,-76.95l-8.37 1529.77z"/>
    <path class="fil20" d="M14977.98 524.48l-0.9 171.7c1.33,195.09 -8.47,42.79 41.75,101.23l1729.14 -3.8 10.04 -375.17 -1739.18 3.26c-46.89,54.19 -7.91,-61.78 -40.85,102.78z"/>
    <polygon class="fil26" points="10741.92,11746.01 10742.67,11820.36 10736.94,13571.08 11040.74,13562.14 11040.51,11373.99 10742.27,11373.99 "/>
    <path class="fil20" d="M8762.07 5477.51l1812.52 -2.05c10.1,-164.13 35.15,-180.84 -17.65,-357.03l-1801.32 -7.15 6.45 366.23z"/>
    <path class="fil12" d="M3752.75 19843.64l461.94 22.59c-23.82,-282.92 -45.24,-1241.69 16.29,-1482.74l-478.23 14.43 0 1445.72z"/>
    <path class="fil20" d="M8578.34 5980.73l1827.63 15.64c32.55,-223.89 31.75,-140.04 -4.58,-357.33l-1406.31 -3.02c-221.51,-2.01 -319.8,-28.65 -405.38,56.15l-11.36 288.56z"/>
    <polygon class="fil12" points="3249.11,19849.93 3685.76,19881.35 3687.56,18382.92 3254.33,18401.99 "/>
    <path class="fil26" d="M15168.99 9352.43c176.69,8.8 296.12,3.27 445.11,-45.53l-0.16 -1391.31c-21.09,37.88 176.73,-32.13 -61.83,28.87 -68.9,-92.27 -221.12,-55.78 -375.71,-67.16l-7.41 1475.13z"/>
    <path class="fil16" d="M19703.92 20269.96c-3.48,-182.43 9.29,-87.16 37.07,-123.52l1189.84 7.89 0 -161.72c-574.18,0.41 -745.28,82.76 -746.5,-177.24 -1.31,-275.74 185.69,-192.71 746.5,-193.18l0 -162.03 -891.82 -12.93 17.05 -351.62 874.77 0.17 0 -161.71 -1041.39 -10.93c-81.72,12.98 -45.16,-9.5 -95.18,36.24l175.84 107.23c-248.4,147.28 -181.57,460.97 177.82,480.16 -143.65,100.09 -224.55,246.94 -88.22,425.56l81.89 90.48c3.67,-6.62 14.79,15.44 21.37,12.93l-607.69 -0.7 148.65 194.92z"/>
    <path class="fil20" d="M6794.98 15761.88c66.31,155.96 -37.23,50.89 153.84,85.23 7.25,1.3 200.17,-1.99 224.25,-2.42 135.86,-2.35 273.29,-0.93 409.28,-0.76 137.87,0.18 274.79,2.61 412.09,4.25 208.79,2.51 272.25,35.52 278.45,-195.44 6.07,-226.05 -27.69,-232.33 -202.03,-236.68l-1085.89 -0.45c-292.22,24.92 -106.87,-40.45 -188.14,85.62l-1.85 260.65z"/>
    <polygon class="fil20" points="6669.34,16414.71 8105.5,16412.69 8119.48,16005.46 6659.53,16004.84 "/>
    <path class="fil1" d="M-40.04 10992.62c5.47,-11.11 16.98,-33.72 21.08,-39.3 55.2,-75.19 11.71,-18.24 53.29,-65.1 264.62,-5.13 438.89,-18.29 703.23,33.78l-13.17 -241.23c89.83,-21.5 124.18,-48.24 226.64,-13.64 105.41,35.61 76.2,67.71 161.39,127.86l483.75 7.52c110.88,-68.23 48.21,-2.74 76.75,-133.63 13.61,-62.41 -4.8,-125.66 -14.13,-186.58l-1698.83 -2.31 0 512.63z"/>
    <polygon class="fil28" points="17223.51,11591.96 18650.56,11601.8 18663.37,11237.53 17219.32,11226.09 "/>
    <path class="fil28" d="M19446.48 11589.3c231.83,-1.27 584.14,-18.88 738.35,-15.65 173.04,3.63 564.53,52.83 746,-20.67l0 -303.84c-250.82,-41.15 -492.95,-19.66 -743.65,-14.8 -235.86,4.58 -492.67,-27.41 -734.42,1.66l-6.28 353.3z"/>
    <path class="fil28" d="M18657.76 12912.58c-232.97,7.59 -472.54,4 -707.44,12.87 -167.17,6.31 -491.06,-19.41 -723.6,-15.56l-22.09 367.76c497.75,-7.74 965.17,-1.17 1452.97,-10.08l0.16 -354.99z"/>
    <path class="fil28" d="M20138.73 12901.53c-399.34,61.77 -989.9,7.23 -1436.75,11.05l-4.11 351.86c241.11,28.69 475.39,1.14 708.48,1.82 236.56,0.68 501.84,-0.13 747.07,7.02l-14.69 -371.75z"/>
    <path class="fil16" d="M-40.04 17980.38l909.6 0.16c13.66,233.08 45.75,294.97 -15.41,528.11l-894.19 -2.37 0 160.64 593.02 4.38 -11.77 259.71 -581.25 3.89 0 161.71 815.81 1.36c118.46,26.24 41.53,-31.42 113.19,56.41 90.88,-49.3 95.43,-15.07 140.36,-128.65l-362.89 -13.73c-2.36,-6.03 -0.93,-16.27 -0.51,-19.43 17.03,-125.03 127.56,-276.76 -34.6,-367.83l214.57 -46.52c304.85,-61.66 225,-452 164.52,-557.35 -121.13,-210.99 -679.33,-113.38 -1050.45,-113.38l0 72.89z"/>
    <path class="fil20" d="M-40.04 18506.28l894.19 2.37c61.16,-233.14 29.07,-295.03 15.41,-528.11l-909.6 -0.16 0 525.9z"/>
    <path class="fil28" d="M16872.11 15682.91c157.39,-9.69 335.13,-44.27 447.02,41.61 -112.36,62.37 -336.45,22.46 -467.12,20.93l22.42 665.46 446.58 -6.33c42.91,-315.62 22.09,-376.95 5.68,-642.89l20.37 -409 -497.53 -67.92 22.58 398.14z"/>
    <polygon class="fil28" points="11664.35,2774.3 12332.48,2768.96 12361.79,2460.34 12426.06,2774.57 13086.94,2766.39 13090.26,2450.13 11695.76,2438.16 "/>
    <path class="fil20" d="M19703.92 20269.96l5.84 146.31c7.77,119.1 3.68,58.67 31.23,97.78l1189.84 -0.8 0 -358.92 -1189.84 -7.89c-27.78,36.36 -40.55,-58.91 -37.07,123.52z"/>
    <path class="fil20" d="M9089.48 4904.04l388.91 44.81c136.35,-1.12 272.9,-0.43 409.27,-0.73 277.65,-0.63 561.86,-5.87 838.69,5.3l-5.95 -280.93 -1610.03 5 -20.89 226.55z"/>
    <path class="fil20" d="M20930.83 18525.27l0 -589.68 -765.32 0.12c121.35,229.86 84.41,238.08 57.6,589.02l707.72 0.54z"/>
    <path class="fil20" d="M-40.04 19979.58l1084.56 2.67c5.75,-172.82 -35.64,-150.2 21.19,-309.87 -37.81,-97.07 -58.08,-62.98 -208.8,-65.59 -97.69,-1.68 -202.75,2.49 -302.03,2.23 -198.32,-0.53 -396.59,0.02 -594.92,0.02l0 370.54z"/>
    <path class="fil18" d="M16230.84 5267.51l-3.84 -13.77c-89.16,33.76 -53.68,5.06 -70.29,96.7l-15.07 294.72c-13.34,145.36 -6.92,334.84 30.03,448.93 8.2,3.5 21.85,-4.04 26.19,5.42 5.99,13.07 486.53,35.04 531.55,-5.05 56.56,-108.59 104.11,-482.13 0,-558.11 -44.37,-63.1 64.44,-26.76 -110.82,-37.99 -341.71,-21.89 -399.27,95.4 -387.75,-230.85z"/>
    <path class="fil20" d="M8365.58 15230.93l13.54 -80.9 -90.3 -193.58c-339.99,5.99 -949.05,-65.57 -1218.42,32.67l-5.74 240.23c177.34,66.2 1167.33,42.73 1300.92,1.58z"/>
    <path class="fil27" d="M2772.92 8695.83c74.78,306.51 367.27,592.7 634.81,690.72 59.74,-74.54 17.53,8.82 46.29,-96.63 29.77,-109.15 -2.9,-228.52 8.71,-330.5 21.4,-188.02 118.62,-135.66 33.98,-307.99 -47.12,-47.37 -707.41,-91.82 -723.79,44.4z"/>
    <path class="fil29" d="M20398.6 4367.42c215.49,75.86 290.75,54.82 514.28,48.66l-31.31 -767.09 -462.25 2.88 -20.72 715.55z"/>
    <path class="fil0" d="M4190.82 11730.47c-411.74,137.09 -225.46,816.67 207.03,664.06 370.66,-130.8 239.9,-812.87 -207.03,-664.06z"/>
    <path class="fil20" d="M-40.04 19486.21l937.58 -1.17 -8.58 -330.66c-71.66,-87.83 5.27,-30.17 -113.19,-56.41l-815.81 -1.36 0 389.6z"/>
    <path class="fil28" d="M18717.06 2339.04c-175.69,39.19 -298.25,26.68 -467.16,73.6l-15.58 723.08 483.41 -13.07 -0.67 -783.61z"/>
    <path class="fil28" d="M15176.4 7877.3c154.59,11.38 306.81,-25.11 375.71,67.16 238.56,-61 40.74,9.01 61.83,-28.87l23.78 -779.76c-163.43,-37.15 -317.68,-34.85 -482.19,-2.68l20.87 744.15z"/>
    <path class="fil28" d="M18258.27 882.87c136.36,44.63 261.85,6.45 461.53,76.95l-13.41 -795.44 -441.86 -5.05c-53.58,142.41 -16.62,541.42 -6.26,723.54z"/>
    <path class="fil29" d="M20900.72 5848.78l-490.57 22.21c-17.73,131.79 -6.75,222.32 3.23,352.35 5.16,67.1 6.27,216.24 5.39,346.39l468.88 9.47 13.07 -730.42z"/>
    <path class="fil0" d="M8490.4 19277.97c240,-379.3 17.28,-327.12 5.15,-599.21l-324.82 -29.89c-488.15,637.53 157.9,771.92 264.92,714.7 47.35,-57.54 16.05,-15.63 54.75,-85.6z"/>
    <path class="fil28" d="M15180.92 10073.75c177.88,17.88 297.55,17.89 462.25,-29.07l-29.07 -737.78c-148.99,48.8 -268.42,54.33 -445.11,45.53l11.93 721.32z"/>
    <path class="fil0" d="M11347.87 19117.87c-15.91,-270.33 -18.09,-189.42 -90.32,-382.89 -122.21,-36.27 -264.5,-114.16 -395.93,4.59 -211.11,190.72 -123.81,636.02 177.52,634.5 166.21,-0.84 173.49,-98.86 239.2,-182.76l44.69 -49.33c5.85,-6.54 15.59,-17.23 24.84,-24.11z"/>
    <path class="fil0" d="M16227 5253.74l3.84 13.77c488.93,288.74 657.69,-247.8 453.03,-505.23 -109.8,-138.12 -304.17,-144.73 -410.75,-18.06 -131.38,156.16 -82.55,341.53 -46.12,509.52z"/>
    <path class="fil0" d="M13366.58 18617.05c-8.93,7.06 -23.6,3.89 -28.76,18.38 -5.04,14.13 -21.31,13.68 -28.19,17.76 -551.61,327.83 -121.53,836.63 147.54,701.23 84.72,-73.35 179.28,-217.6 158.78,-382.54 -7.03,-56.56 -50.52,-159.87 -81.27,-200.23l-171.32 -159.66 -345.89 -25.91c87.8,44.34 214.63,30.3 349.11,30.97z"/>
    <polygon class="fil20" points="20930.83,19460.16 20930.83,19095.78 20056.06,19095.61 20039.01,19447.23 "/>
    <path class="fil0" d="M9464.85 18617.95c-7.18,7.77 -19.17,7.99 -23.32,22.86l-165.85 155.22c-261.89,363.79 249.28,858.78 446.76,413.2 28.56,-64.42 48.35,-154.05 40.03,-242.5 -18.49,-196.97 -105.65,-280.87 -306.58,-302.33 10.41,-6.17 27.07,-23.7 33.57,-13.78l-24.61 -32.67z"/>
    <path class="fil0" d="M4136.77 5384.54c80.9,-108.5 174.85,-235.38 137.85,-421.53 -31.29,-157.46 -140.75,-331.65 -348.99,-259.43 -258.48,89.63 -362.65,736.75 211.14,680.96z"/>
    <path class="fil0" d="M12497.43 18688.67c-370.49,160.14 -222.04,746.62 135.01,679.34 313.55,-59.07 265.48,-852.43 -135.01,-679.34z"/>
    <path class="fil20" d="M-40.04 20511.4l864.53 1.46c67.37,-185.58 55.34,-173 0.61,-350.86l-865.14 2.75 0 346.65z"/>
    <path class="fil0" d="M10165.86 18706.03c-403.62,222.93 -108,803.68 215.82,641.39 262.52,-131.56 162.18,-850.17 -215.82,-641.39z"/>
    <path class="fil0" d="M11969.87 19336.63c67.8,-143.36 138.48,-289.84 79.77,-460.2 -57.86,-167.91 -198.35,-267.1 -371.25,-174.5 -255.58,136.91 -245.52,795.24 291.48,634.7z"/>
    <path class="fil0" d="M3027.46 4729.59c-160.77,81.41 -240.23,195.15 -192.82,424.66 35.29,170.87 202.92,317.43 394.21,193.4 249.77,-161.94 192.55,-817.54 -201.39,-618.06z"/>
    <path class="fil0" d="M4712.59 4705.09c-504.9,186.87 -49.19,959.52 250.67,597.57 72.25,-87.2 102.56,-219.06 76.3,-347.29 -35.19,-171.78 -158.8,-312.53 -326.97,-250.28z"/>
    <path class="fil0" d="M2035.96 8288.03c-250.71,192.93 -48.04,857.29 301.42,597.4 101.36,-75.38 129.55,-318.9 87.3,-465.25 -48.83,-169.2 -213.51,-266.96 -388.72,-132.15z"/>
    <path class="fil0" d="M15200.14 4744.85c-317.69,172.46 -103.94,848.73 244.65,631.23 220.03,-137.28 134.11,-836.85 -244.65,-631.23z"/>
    <path class="fil0" d="M20316.66 8975.29l67.43 -60.1c352.65,-136.85 201.36,-725.66 -72.2,-687.88 -250.9,34.66 -356.39,465.99 -102,671.84l106.77 76.14z"/>
    <polygon class="fil20" points="19889.44,18923.14 20930.83,18934.07 20930.83,18648.58 19889.45,18648.02 "/>
    <path class="fil0" d="M19498.41 8246c-96.56,122.26 -179.5,236.07 -131.55,445.15 35.43,154.51 171.46,294.62 358.72,218.8 171.82,-69.56 326.16,-717.26 -227.17,-663.95z"/>
    <path class="fil0" d="M1450.27 8239.21c-150.64,43.66 -252.14,172.08 -235.1,373.96 14.13,167.43 114.68,339.62 303.9,315.33 331.1,-42.51 257.38,-783.82 -68.8,-689.29z"/>
    <path class="fil0" d="M718.87 8251.45c-381.31,179.77 -197.49,753.52 124.91,668.72 302.14,-79.46 212.99,-828.02 -124.91,-668.72z"/>
    <path class="fil8" d="M17923.38 15817.9l386.67 52.32c19.46,-235.04 71.37,-551.53 36.8,-756.73l-353.69 5.77 -69.78 698.64z"/>
    <polygon class="fil8" points="20392.41,15873.59 20764.2,15893.49 20780.96,15140.39 20398.53,15157.95 "/>
    <path class="fil20" d="M20930.83 19992.61l0 -370.42c-560.81,0.47 -747.81,-82.56 -746.5,193.18 1.22,260 172.32,177.65 746.5,177.24z"/>
    <path class="fil30" d="M2265.32 11745.99c-263.68,189.29 -81.47,843.72 223.01,635.91 210.02,-143.36 118.74,-881.21 -223.01,-635.91z"/>
    <path class="fil30" d="M3461.03 11747.09c-271.77,207.98 -85.8,845.32 216.4,632.23 215.32,-151.82 104.89,-878.12 -216.4,-632.23z"/>
    <path class="fil27" d="M2746.96 8032.82l425.37 -250.64c115.41,-91.13 44.65,-111.21 179.33,-160.13 100.83,-36.64 190.54,-23.06 264.34,-64.33 -3.91,-94.31 -122,-261.49 -214.04,-303.59 -292.03,85.57 -607.08,422.52 -655,778.69z"/>
    <path class="fil30" d="M3055.96 12415.84c191.19,-239.1 194.88,-485.36 2.18,-708.07 -230.72,-9.87 -312.97,107.69 -316.05,335.71 -3.5,258.02 78,375.36 313.87,372.36z"/>
    <polygon class="fil28" points="-14.09,11593.66 697.64,11587.87 704.8,11232.83 -10.09,11222.95 "/>
    <path class="fil28" d="M10896.84 4648.25l563.83 -84.05 117.37 -68.77 -39.61 -280.73c-188.84,-40.99 -543.73,12.22 -693.23,94.82l51.64 338.73z"/>
    <polygon class="fil28" points="18713.11,11602.58 19405.79,11589.3 19407.13,11236.24 18702.9,11225.76 "/>
    <path class="fil28" d="M20930.83 13251.94l0 -311.41c-190.32,-61.94 -498.73,-20.08 -730.35,-37.76l-14.02 355.58 744.37 -6.41z"/>
    <path class="fil28" d="M16387.38 11531.15l651.77 60.64c58.46,-63.94 25.48,51.87 62.45,-141.87 11.02,-57.76 9.64,-139.25 11.42,-197.76l-679.42 -106.68 -46.22 385.67z"/>
    <polygon class="fil28" points="11104.08,5942.03 11145.91,6307.73 11848.18,6198.21 11807.53,5865.35 "/>
    <path class="fil0" d="M7360.03 13266.92l696.99 -3.7c5.96,-232.55 76.54,-333.92 -137.22,-353.64 -142.45,-13.15 -390.6,1.73 -543.26,3.86l-16.51 353.48z"/>
    <polygon class="fil28" points="16857.89,12913.95 16193.07,12821.39 16127.29,13171.17 16834.45,13269.14 "/>
    <path class="fil0" d="M5868.27 13131.15c10.11,130.53 -34.47,45.04 28.19,142.17l668.88 -16.23c-13.08,-430.74 139.69,-330.61 -700.36,-345.14l3.29 219.2z"/>
    <polygon class="fil0" points="9566.87,13257.17 9552.15,12920.37 8853.53,12921.18 8861.31,13272.85 "/>
    <path class="fil30" d="M517.51 1971.97l45.77 -317.12 -131.88 -127.41c-333.58,-239.14 -537.7,420.49 -228.65,536.79 153.34,57.72 221.87,-32.36 314.76,-92.26z"/>
    <path class="fil18" d="M18786.37 6191.89c418.46,-25.57 453,89.87 469.42,-244.16 7.02,-142.96 16.77,-173.73 -35.35,-276.85l-452.94 13.98 18.87 507.03z"/>
    <path class="fil30" d="M11083.93 15465.08c-623.16,24.4 -278.97,841.4 59.25,549.33 15.45,-13.34 95.03,-143.9 102.39,-189.68 27.84,-173.07 -92.29,-280.7 -161.64,-359.65z"/>
    <path class="fil28" d="M11690.58 1121.74c176.74,-38.78 470.01,-47.67 634.29,3.38 186.32,-488.15 -212.72,-393.2 -641.82,-368.15l7.53 364.77z"/>
    <polygon class="fil0" points="8103.66,13264.21 8793.34,13264.52 8798.37,12926.12 8121.21,12911.49 "/>
    <polygon class="fil0" points="6621.5,13263.86 7310.08,13262.96 7310.69,12924.06 6637.42,12910.59 "/>
    <polygon class="fil28" points="15198.16,16414.99 15521.47,16414.45 15551.78,15748 15172.93,15740.5 "/>
    <polygon class="fil0" points="8109.9,11586.45 8787.9,11580.78 8795.89,11245.39 8113.2,11230.57 "/>
    <path class="fil0" d="M5878.51 11580.57l670.14 -0.14 10.05 -319.74c-188.9,-60.1 -463.52,-29.5 -667.29,-26.69l-12.9 346.57z"/>
    <polygon class="fil28" points="-11.66,13265.61 668.59,13247.67 647.89,12898.46 4.17,12909.06 "/>
    <polygon class="fil0" points="6623.88,11581.23 7300.42,11581.22 7310.39,11243.59 6634.92,11231.3 "/>
    <path class="fil30" d="M2334.95 1490.37c-468.27,-37.23 -405.52,459.93 -225.82,558.61 158.36,86.97 291.76,12.2 334.55,-130.39 60.02,-199.99 -37.85,-329.26 -108.73,-428.22z"/>
    <path class="fil30" d="M18979.78 4994.22c-144.28,33.37 -210.06,161.84 -198.49,315.75 10.81,143.62 102.14,299.59 281.4,263.3 314.11,-63.6 254.94,-657.19 -82.91,-579.05z"/>
    <polygon class="fil0" points="9553,11578.43 9541.59,11256.73 8865.22,11227.82 8855.82,11576.71 "/>
    <path class="fil30" d="M1413.17 19031.98c-61.69,49.5 -90.1,68.4 -111.64,159.53 -19.96,84.48 -11.54,156.49 19.05,225.56 48.34,109.2 209.28,217.89 356.37,113.6 215.68,-152.9 55.3,-754.78 -263.78,-498.69z"/>
    <polygon class="fil0" points="7364.67,11578.31 8043.38,11581.17 8057.24,11250.89 7378.62,11232 "/>
    <path class="fil28" d="M6397.32 9456.71l-2.71 -684.01 -319.34 18.5c-61.71,194.14 -19.12,457.88 0.67,658.62l321.38 6.89z"/>
    <path class="fil28" d="M13909.91 2777.88l678.71 -8.26 2.27 -320.74 -659.72 -12.68c-54.45,136.3 -44.21,196.24 -21.26,341.68z"/>
    <path class="fil28" d="M12676.91 14386.91l-12.35 480.58c116.82,47.7 364.37,34.72 409.01,19.95 102.5,-33.91 99.31,6.98 71.52,-378.72l-426.74 -8.48c395.22,-132.65 169.37,-20.56 373.32,-77.11 -61.76,-71.7 41.63,-12.19 -86.39,-55.41 -85.2,-28.77 -252.79,-25.79 -328.37,19.19z"/>
    <polygon class="fil28" points="13156.09,2777.64 13832.07,2764.74 13840.96,2443.22 13156.22,2433.73 "/>
    <polygon class="fil28" points="7730.04,9461.04 8061.9,9452.49 8060.73,8780.11 7732.11,8773.13 "/>
    <polygon class="fil28" points="14572.83,1088.45 14585.46,843.34 14590.89,769.19 13915.22,747.11 13903.87,1093.05 "/>
    <path class="fil28" d="M10942.8 1109.98c200.18,-8.31 461.31,-38.67 639.97,12.4l29.09 -344.69 -673.24 -28.37 4.18 360.66z"/>
    <path class="fil28" d="M12433.51 1127.06c167.5,-48.6 476.3,-48.38 637.52,-1.56l28.09 -347.91 -672.51 -25.49 6.9 374.96z"/>
    <polygon class="fil28" points="13160.01,1096.5 13826.45,1081.23 13834.84,759.61 13172.82,752.97 "/>
    <polygon class="fil28" points="10922.63,2776.68 11612.3,2766.27 11600.41,2449.89 10947.61,2435.74 "/>
    <path class="fil0" d="M1762.46 2041.06c5.48,-70.87 -15.97,-75.41 45.26,-111.4 32.66,-408.46 -237,-612.07 -414.89,-313.61 -77.87,130.65 -63.68,255.92 11.16,355.84 97.77,130.57 187.54,100 358.47,69.17z"/>
    <path class="fil0" d="M2820.85 1509.27c-341.31,137.31 -144.21,638.66 132.77,554.42 274.02,-83.35 181.47,-680.85 -132.77,-554.42z"/>
    <path class="fil0" d="M-40.04 8917.48c150.65,18.54 203.34,50.07 287.8,-78.7 28.48,-43.41 81.36,-201.79 82.1,-256.15 2.99,-221.58 -117.49,-371.23 -369.9,-336.67l0 671.52z"/>
    <path class="fil28" d="M19798.55 962.92l-10.39 -594.55 -435.58 29.9c58.51,51.37 53.74,53.29 200.72,71.67 133.33,16.67 52.48,-29.45 187.33,20.8 -99.44,54.47 -218.37,30.02 -396.32,45.33l-0.35 352.73c158.31,57.07 236.12,0.38 454.59,74.12z"/>
    <path class="fil0" d="M856.86 1520.04c-307.21,145.59 -127.08,629.83 162.78,542.81 217.05,-65.14 205.08,-717.12 -162.78,-542.81z"/>
    <path class="fil0" d="M5797.6 19552.69c223.02,-286.34 71.73,-707.66 -228.22,-529.12 -195.01,116.06 -217.43,581 228.22,529.12z"/>
    <polygon class="fil28" points="4606.3,904.87 5160.02,888.22 5158.75,521.78 4608.03,500.65 "/>
    <path class="fil28" d="M4599.61 2365.73l6.39 369.63 533.63 -6.09 26.04 -364.36c-150.05,1.27 -414.91,-46.15 -566.06,0.82z"/>
    <path class="fil30" d="M11195.98 8542.37c-71.93,-28.24 -157.54,-54.62 -267.51,-60.36 -138.58,186.2 -275.78,330.85 -36.91,513.52 83.54,63.91 200.84,71.52 272.41,-27.59 89.91,-124.47 46.81,-288.84 32.01,-425.57z"/>
    <path class="fil30" d="M12851.36 8528.84c-105.36,73.83 -204.01,152.15 -103.97,363.45 116.33,245.72 353.04,162.66 405.46,-35.43 16.25,-61.42 12.91,-146.3 -2.42,-201.91 -34.19,-124.03 -148.94,-231.31 -299.07,-126.11z"/>
    <path class="fil30" d="M11570.3 8518.86c-327,202.22 -74.94,620.89 167.19,502.08 232.05,-113.86 131.97,-687.09 -167.19,-502.08z"/>
    <path class="fil30" d="M5552.38 11708.92c-194.82,13.39 -234.99,114.5 -220.15,334.34 10.39,153.84 63.73,335.32 182.22,362.96 278.6,65.01 160.57,-545.13 37.93,-697.3z"/>
    <path class="fil30" d="M12503.51 8617.14c-13.4,-53.54 -17.28,-59.23 -40.6,-103.74 -713.09,-138.4 -288.89,840.49 -1.73,417.99 71.47,-105.16 65.38,-109.06 42.33,-314.25z"/>
    <path class="fil30" d="M4942.4 12418.36c260.36,-144.01 193.88,-751.56 -26.3,-704.02 -165.34,35.69 -251.02,588.61 26.3,704.02z"/>
    <path class="fil28" d="M5359.01 20248.98l-7.23 -378.54 -460.13 -5.2c-12.13,64.57 -25.06,142.94 -23.37,213.98 4.46,187.02 -19.62,111.75 61.08,159.94 92,54.93 315.32,19.47 429.65,9.82z"/>
    <polygon class="fil28" points="17351.38,14822.89 17223.94,14834.96 16857.68,14835.4 16877.38,15231.74 17329.54,15211.16 "/>
    <polygon class="fil28" points="4341.69,20223.98 4802.7,20254.29 4799.09,19833.14 4340.72,19858.75 "/>
    <polygon class="fil28" points="4890.93,18387.23 5357.7,18392.68 5363.68,18008.7 4889.62,18008.13 "/>
    <polygon class="fil28" points="4341.92,18384.91 4796.79,18417.12 4791.26,17994.95 4347.01,18012.51 "/>
    <path class="fil28" d="M3752.75 18397.92l478.23 -14.43 -0.43 -374.53c-157.81,-3.76 -332.33,-30.55 -440.99,18.88 -15.05,142.44 16.69,245.52 -36.81,370.08z"/>
    <polygon class="fil28" points="19360,6255.68 19792.24,6231.77 19806.07,5873.13 19362.24,5842.11 "/>
    <polygon class="fil28" points="19893.93,4406.25 20330.24,4387.9 20331.67,4014.07 19902.64,3999.77 "/>
    <polygon class="fil28" points="3254.33,18401.99 3687.56,18382.92 3687.51,18011.07 3255.13,17998.38 "/>
    <path class="fil28" d="M20337.35 6243.61l-6.48 -377.81c-103.59,-8.39 -264.26,-10.02 -413.45,-23.38l-22.52 401.83 442.45 -0.64z"/>
    <polygon class="fil28" points="19370.19,4412.54 19355.65,4405.26 19778.42,4390.91 19805.32,4015.31 19376.03,3998 "/>
    <path class="fil28" d="M3260.21 20223.77l419.5 0 6.05 -342.42 -436.65 -31.42c-23.6,129.1 -32.26,269.95 11.1,373.84z"/>
    <polygon class="fil20" points="-40.04,18934.9 541.21,18931.01 552.98,18671.3 -40.04,18666.92 "/>
    <path class="fil28" d="M7732.2 8730.17l310.76 -10.86c54.48,-151.9 35.35,-245.24 29.33,-403.24l-345.6 -6.09 5.51 420.19z"/>
    <polygon class="fil28" points="15196.49,15682.34 15527.31,15673.48 15548.78,15294.63 15169.51,15284.89 "/>
    <path class="fil28" d="M7729.31 8259.37l336.39 -2.21c13.57,-149.98 32.84,-269.8 -21.91,-402.59l-307.84 -3.35 -6.64 408.15z"/>
    <path class="fil28" d="M6385.04 8726.69l20.4 -411.67 -349.53 2.46 2.24 379.76c79.05,18.41 204.09,-35.96 326.89,29.45z"/>
    <polygon class="fil28" points="6054.93,7867.96 6058.06,8257.89 6377.65,8254.46 6402.28,7879.44 "/>
    <polygon class="fil28" points="15194.63,15204.56 15511.18,15221.61 15552.16,14838.27 15185.79,14843.56 "/>
   </g>
   <polygon class="fil31 str0" style="mask:url(#id1)" points="-40.04,-3.64 20930.83,-3.64 20930.83,20967.23 -40.04,20967.23 "/>
  </g>
 </g>
</svg>
