<?xml version="1.0" encoding="UTF-8"?>
<!DOCTYPE svg PUBLIC "-//W3C//DTD SVG 1.1//EN" "http://www.w3.org/Graphics/SVG/1.1/DTD/svg11.dtd">
<!-- Creator: CorelDRAW X7 -->
<svg xmlns="http://www.w3.org/2000/svg" xml:space="preserve" width="297mm" height="210mm" version="1.1" style="shape-rendering:geometricPrecision; text-rendering:geometricPrecision; image-rendering:optimizeQuality; fill-rule:evenodd; clip-rule:evenodd"
viewBox="0 0 29700 21000"
 xmlns:xlink="http://www.w3.org/1999/xlink">
 <defs>
  <style type="text/css">
   <![CDATA[
    .str0 {stroke:black;stroke-width:100}
    .fil5 {fill:none}
    .fil4 {fill:#141313}
    .fil3 {fill:#333333}
    .fil2 {fill:#6666CC}
    .fil0 {fill:red}
    .fil1 {fill:yellow}
    .fil6 {fill:white}
   ]]>
  </style>
    <clipPath id="id0">
     <path d="M10407 6970l6048 0 -93 7570 -6048 0 93 -7570z"/>
    </clipPath>
    <clipPath id="id1">
     <path d="M8985 8899l6051 0 0 7244 -6051 0 0 -7244z"/>
    </clipPath>
   <clipPath id="id2">
    <path d="M14138 11424l3219 -2547c198,-157 144,-115 144,145l0 4477c0,195 19,148 -134,270l-3092 2447c-18,14 -131,109 -137,109l-67 0 -4725 0c-117,0 -99,19 -99,-98l0 -4678c0,-150 -23,-125 128,-125l4763 0z"/>
   </clipPath>
 </defs>
 <g id="Layer_x0020_1">
  <metadata id="CorelCorpID_0Corel-Layer"/>
  <path class="fil0 str0" d="M16510 6105l-1021 0c-318,0 -260,-45 -260,281l0 603c0,314 59,276 -243,276l-2651 0c-333,0 -268,-42 -268,303l0 4174c0,393 321,715 715,715l3728 0c393,0 715,-322 715,-715l0 -4921c0,-394 -322,-716 -715,-716z"/>
  <g id="_2051761097504">
   <g style="clip-path:url(#id0)">
    <image x="10314" y="6970" width="6142" height="7570" xlink:href="logo pbl_Images\logo pbl_ImgID1.png"/>
   </g>
  </g>
  <path class="fil1 str0" d="M15207 7726l-1054 0c-275,0 -227,-41 -227,239l0 632c0,347 54,289 -295,289l-2522 0c-382,0 -345,-77 -345,285l0 4191c0,394 322,716 716,716l3727 0c394,0 716,-322 716,-716l0 -4921c0,-393 -322,-715 -716,-715z"/>
  <g id="_2051761097792">
   <g style="clip-path:url(#id1)">
    <image x="8985" y="8899" width="6051" height="7243" xlink:href="logo pbl_Images\logo pbl_ImgID2.png"/>
   </g>
  </g>
  <path class="fil2 str0" d="M13876 9347l-1056 0c-269,0 -225,-43 -225,227l0 803c0,147 28,129 -112,129l-2893 0c-197,0 -157,-22 -157,185l0 4292c0,393 322,715 716,715l3727 0c394,0 716,-322 716,-715l0 -4921c0,-394 -322,-715 -716,-715z"/>
  <path class="fil3" d="M14138 11424l3219 -2547c198,-157 144,-115 144,145l0 4477c0,195 19,148 -134,270l-3092 2447c-18,14 -131,109 -137,109l-67 0 -4725 0c-117,0 -99,19 -99,-98l0 -4678c0,-150 -23,-125 128,-125l4763 0z"/>
  <g style="clip-path:url(#id2)">
   <g id="_2051761096128">
    <ellipse class="fil4" cx="10444" cy="14575" rx="2592" ry="2605"/>
   </g>
  </g>
  <path class="fil5 str0" d="M14138 11424l3219 -2547c198,-157 144,-115 144,145l0 4477c0,195 19,148 -134,270l-3092 2447c-18,14 -131,109 -137,109l-67 0 -4725 0c-117,0 -99,19 -99,-98l0 -4678c0,-150 -23,-125 128,-125l4763 0z"/>
  <rect class="fil6" x="10428" y="12311" width="2641" height="938" rx="469" ry="469"/>
  <line class="fil5 str0" x1="14138" y1="11424" x2="14230" y2= "16251" />
 </g>
</svg>
